<?xml version="1.0" encoding="utf-8" standalone="no"?>
<!DOCTYPE svg PUBLIC "-//W3C//DTD SVG 1.1//EN"
  "http://www.w3.org/Graphics/SVG/1.1/DTD/svg11.dtd">
<svg xmlns:xlink="http://www.w3.org/1999/xlink" width="795.6pt" height="513.36pt" viewBox="0 0 795.6 513.36" xmlns="http://www.w3.org/2000/svg" version="1.1">
 <metadata>
  <rdf:RDF xmlns:dc="http://purl.org/dc/elements/1.1/" xmlns:cc="http://creativecommons.org/ns#" xmlns:rdf="http://www.w3.org/1999/02/22-rdf-syntax-ns#">
   <cc:Work>
    <dc:type rdf:resource="http://purl.org/dc/dcmitype/StillImage"/>
    <dc:date>2026-05-02T19:11:35.859444</dc:date>
    <dc:format>image/svg+xml</dc:format>
    <dc:creator>
     <cc:Agent>
      <dc:title>Matplotlib v3.10.8, https://matplotlib.org/</dc:title>
     </cc:Agent>
    </dc:creator>
   </cc:Work>
  </rdf:RDF>
 </metadata>
 <defs>
  <style type="text/css">*{stroke-linejoin: round; stroke-linecap: butt}</style>
 </defs>
 <g id="figure_1">
  <g id="patch_1">
   <path d="M 0 513.36 
L 795.6 513.36 
L 795.6 -0 
L 0 -0 
z
" style="fill: #ffffff"/>
  </g>
  <g id="axes_1">
   <g id="patch_2">
    <path d="M 39.75 443.79 
L 573.57 443.79 
L 573.57 57.096 
L 39.75 57.096 
L 39.75 443.79 
z
" clip-path="url(#p5d28868a55)" style="fill: none; stroke-dasharray: 6.66,2.88; stroke-dashoffset: 0; stroke: #000000; stroke-width: 1.8; stroke-linejoin: miter"/>
   </g>
   <g id="patch_3">
    <path d="M 69.045 177.4701 
L 199.245 177.4701 
Q 204.453 177.4701 204.453 172.4805 
L 204.453 125.703 
Q 204.453 120.7134 199.245 120.7134 
L 69.045 120.7134 
Q 63.837 120.7134 63.837 125.703 
L 63.837 172.4805 
Q 63.837 177.4701 69.045 177.4701 
z
" clip-path="url(#p5d28868a55)" style="fill: #ffffff; stroke: #000000; stroke-width: 1.5; stroke-linejoin: miter"/>
   </g>
   <g id="patch_4">
    <path d="M 231.795 177.4701 
L 361.995 177.4701 
Q 367.203 177.4701 367.203 172.4805 
L 367.203 125.703 
Q 367.203 120.7134 361.995 120.7134 
L 231.795 120.7134 
Q 226.587 120.7134 226.587 125.703 
L 226.587 172.4805 
Q 226.587 177.4701 231.795 177.4701 
z
" clip-path="url(#p5d28868a55)" style="fill: #ffffff; stroke: #000000; stroke-width: 1.5; stroke-linejoin: miter"/>
   </g>
   <g id="patch_5">
    <path d="M 394.545 177.4701 
L 524.745 177.4701 
Q 529.953 177.4701 529.953 172.4805 
L 529.953 125.703 
Q 529.953 120.7134 524.745 120.7134 
L 394.545 120.7134 
Q 389.337 120.7134 389.337 125.703 
L 389.337 172.4805 
Q 389.337 177.4701 394.545 177.4701 
z
" clip-path="url(#p5d28868a55)" style="fill: #ffffff; stroke: #000000; stroke-width: 1.5; stroke-linejoin: miter"/>
   </g>
   <g id="patch_6">
    <path d="M 69.045 274.1436 
L 199.245 274.1436 
Q 204.453 274.1436 204.453 269.154 
L 204.453 222.3765 
Q 204.453 217.3869 199.245 217.3869 
L 69.045 217.3869 
Q 63.837 217.3869 63.837 222.3765 
L 63.837 269.154 
Q 63.837 274.1436 69.045 274.1436 
z
" clip-path="url(#p5d28868a55)" style="fill: #ffffff; stroke: #000000; stroke-width: 1.5; stroke-linejoin: miter"/>
   </g>
   <g id="patch_7">
    <path d="M 231.795 274.1436 
L 361.995 274.1436 
Q 367.203 274.1436 367.203 269.154 
L 367.203 222.3765 
Q 367.203 217.3869 361.995 217.3869 
L 231.795 217.3869 
Q 226.587 217.3869 226.587 222.3765 
L 226.587 269.154 
Q 226.587 274.1436 231.795 274.1436 
z
" clip-path="url(#p5d28868a55)" style="fill: #ffffff; stroke: #000000; stroke-width: 1.5; stroke-linejoin: miter"/>
   </g>
   <g id="patch_8">
    <path d="M 394.545 274.1436 
L 524.745 274.1436 
Q 529.953 274.1436 529.953 269.154 
L 529.953 222.3765 
Q 529.953 217.3869 524.745 217.3869 
L 394.545 217.3869 
Q 389.337 217.3869 389.337 222.3765 
L 389.337 269.154 
Q 389.337 274.1436 394.545 274.1436 
z
" clip-path="url(#p5d28868a55)" style="fill: #ffffff; stroke: #000000; stroke-width: 1.5; stroke-linejoin: miter"/>
   </g>
   <g id="patch_9">
    <path d="M 69.045 373.9356 
L 199.245 373.9356 
Q 204.453 373.9356 204.453 368.946 
L 204.453 322.1685 
Q 204.453 317.1789 199.245 317.1789 
L 69.045 317.1789 
Q 63.837 317.1789 63.837 322.1685 
L 63.837 368.946 
Q 63.837 373.9356 69.045 373.9356 
z
" clip-path="url(#p5d28868a55)" style="fill: #ffffff; stroke: #000000; stroke-width: 1.5; stroke-linejoin: miter"/>
   </g>
   <g id="patch_10">
    <path d="M 231.795 373.9356 
L 361.995 373.9356 
Q 367.203 373.9356 367.203 368.946 
L 367.203 322.1685 
Q 367.203 317.1789 361.995 317.1789 
L 231.795 317.1789 
Q 226.587 317.1789 226.587 322.1685 
L 226.587 368.946 
Q 226.587 373.9356 231.795 373.9356 
z
" clip-path="url(#p5d28868a55)" style="fill: #ffffff; stroke: #000000; stroke-width: 1.5; stroke-linejoin: miter"/>
   </g>
   <g id="patch_11">
    <path d="M 628.905 171.2331 
L 752.595 171.2331 
Q 757.803 171.2331 757.803 166.2435 
L 757.803 119.466 
Q 757.803 114.4764 752.595 114.4764 
L 628.905 114.4764 
Q 623.697 114.4764 623.697 119.466 
L 623.697 166.2435 
Q 623.697 171.2331 628.905 171.2331 
z
" clip-path="url(#p5d28868a55)" style="fill: #ffffff; stroke: #000000; stroke-width: 1.5; stroke-linejoin: miter"/>
   </g>
   <g id="patch_12">
    <path d="M 628.905 286.6176 
L 752.595 286.6176 
Q 757.803 286.6176 757.803 281.628 
L 757.803 234.8505 
Q 757.803 229.8609 752.595 229.8609 
L 628.905 229.8609 
Q 623.697 229.8609 623.697 234.8505 
L 623.697 281.628 
Q 623.697 286.6176 628.905 286.6176 
z
" clip-path="url(#p5d28868a55)" style="fill: #ffffff; stroke: #000000; stroke-width: 1.5; stroke-linejoin: miter"/>
   </g>
   <g id="patch_13">
    <path d="M 628.905 367.6986 
L 752.595 367.6986 
Q 757.803 367.6986 757.803 362.709 
L 757.803 315.9315 
Q 757.803 310.9419 752.595 310.9419 
L 628.905 310.9419 
Q 623.697 310.9419 623.697 315.9315 
L 623.697 362.709 
Q 623.697 367.6986 628.905 367.6986 
z
" clip-path="url(#p5d28868a55)" style="fill: #ffffff; stroke: #000000; stroke-width: 1.5; stroke-linejoin: miter"/>
   </g>
   <g id="patch_14">
    <path d="M 134.145 177.599644 
Q 134.145 247.325501 134.145 315.709717 
" clip-path="url(#p5d28868a55)" style="fill: none; stroke: #000000; stroke-width: 1.2; stroke-linecap: round"/>
    <path d="M 136.945 310.109717 
L 134.145 315.709717 
L 131.345 310.109717 
" clip-path="url(#p5d28868a55)" style="fill: none; stroke: #000000; stroke-width: 1.2; stroke-linecap: round"/>
   </g>
   <g id="patch_15">
    <path d="M 296.895 177.600215 
Q 296.895 197.428599 296.895 215.915341 
" clip-path="url(#p5d28868a55)" style="fill: none; stroke: #000000; stroke-width: 1.2; stroke-linecap: round"/>
    <path d="M 299.695 210.315341 
L 296.895 215.915341 
L 294.095 210.315341 
" clip-path="url(#p5d28868a55)" style="fill: none; stroke: #000000; stroke-width: 1.2; stroke-linecap: round"/>
   </g>
   <g id="patch_16">
    <path d="M 461.603036 175.194389 
Q 542.646532 158.44745 622.376145 141.972014 
" clip-path="url(#p5d28868a55)" style="fill: none; stroke: #000000; stroke-width: 1.2; stroke-linecap: round"/>
    <path d="M 616.325385 140.363195 
L 622.376145 141.972014 
L 617.458634 145.847331 
" clip-path="url(#p5d28868a55)" style="fill: none; stroke: #000000; stroke-width: 1.2; stroke-linecap: round"/>
   </g>
   <g id="patch_17">
    <path d="M 298.845238 271.821494 
Q 344.092898 261.357658 388.033414 251.196108 
" clip-path="url(#p5d28868a55)" style="fill: none; stroke: #000000; stroke-width: 1.2; stroke-linecap: round"/>
    <path d="M 381.946538 249.729844 
L 388.033414 251.196108 
L 383.208277 255.185851 
" clip-path="url(#p5d28868a55)" style="fill: none; stroke: #000000; stroke-width: 1.2; stroke-linecap: round"/>
   </g>
   <g id="patch_18">
    <path d="M 529.355919 245.852235 
Q 576.825598 194.309351 623.386389 143.753343 
" clip-path="url(#p5d28868a55)" style="fill: none; stroke: #000000; stroke-width: 1.2; stroke-linecap: round"/>
    <path d="M 617.533093 145.975711 
L 623.386389 143.753343 
L 621.652306 149.769401 
" clip-path="url(#p5d28868a55)" style="fill: none; stroke: #000000; stroke-width: 1.2; stroke-linecap: round"/>
   </g>
   <g id="patch_19">
    <path d="M 135.963694 371.233674 
Q 379.897129 259.79867 622.610229 148.921145 
" clip-path="url(#p5d28868a55)" style="fill: none; stroke: #000000; stroke-width: 1.2; stroke-linecap: round"/>
    <path d="M 616.353102 148.701228 
L 622.610229 148.921145 
L 618.680019 153.794896 
" clip-path="url(#p5d28868a55)" style="fill: none; stroke: #000000; stroke-width: 1.2; stroke-linecap: round"/>
   </g>
   <g id="patch_20">
    <path d="M 298.788692 371.417826 
Q 461.272967 315.931341 622.487589 260.878427 
" clip-path="url(#p5d28868a55)" style="fill: none; stroke: #000000; stroke-width: 1.2; stroke-linecap: round"/>
    <path d="M 616.283208 260.038391 
L 622.487589 260.878427 
L 618.092932 265.33791 
" clip-path="url(#p5d28868a55)" style="fill: none; stroke: #000000; stroke-width: 1.2; stroke-linecap: round"/>
   </g>
   <g id="patch_21">
    <path d="M 354.228416 347.048121 
Q 488.93902 342.438784 622.308768 337.875326 
" clip-path="url(#p5d28868a55)" style="fill: none; stroke: #000000; stroke-width: 1.2; stroke-linecap: round"/>
    <path d="M 616.616293 335.268464 
L 622.308768 337.875326 
L 616.807794 340.865189 
" clip-path="url(#p5d28868a55)" style="fill: none; stroke: #000000; stroke-width: 1.2; stroke-linecap: round"/>
   </g>
   <g id="patch_22">
    <path d="M 334.46344 318.111395 
Q 479.173643 241.088222 622.699517 164.695418 
" clip-path="url(#p5d28868a55)" style="fill: none; stroke: #000000; stroke-width: 1.2; stroke-linecap: round"/>
    <path d="M 616.440558 164.854882 
L 622.699517 164.695418 
L 619.071713 169.798264 
" clip-path="url(#p5d28868a55)" style="fill: none; stroke: #000000; stroke-width: 1.2; stroke-linecap: round"/>
   </g>
   <g id="patch_23">
    <path d="M 196.628722 248.545995 
Q 212.265424 202.104992 227.47401 156.935491 
" clip-path="url(#p5d28868a55)" style="fill: none; stroke: #000000; stroke-width: 1.2; stroke-linecap: round"/>
    <path d="M 223.033439 161.349257 
L 227.47401 156.935491 
L 228.340681 163.136207 
" clip-path="url(#p5d28868a55)" style="fill: none; stroke: #000000; stroke-width: 1.2; stroke-linecap: round"/>
   </g>
   <g id="patch_24">
    <path d="M 194.402631 252.344859 
Q 130.891117 203.666356 68.444448 155.804006 
" clip-path="url(#p5d28868a55)" style="fill: none; stroke: #000000; stroke-width: 1.2; stroke-linecap: round"/>
    <path d="M 71.185798 161.432949 
L 68.444448 155.804006 
L 74.592413 156.988292 
" clip-path="url(#p5d28868a55)" style="fill: none; stroke: #000000; stroke-width: 1.2; stroke-linecap: round"/>
   </g>
   <g id="text_1">
    <!-- Next.js Frontend Container -->
    <g transform="translate(215.104687 75.952875) scale(0.12 -0.12)">
     <defs>
      <path id="DejaVuSans-Bold-4e" d="M 588 4666 
L 1931 4666 
L 3628 1466 
L 3628 4666 
L 4769 4666 
L 4769 0 
L 3425 0 
L 1728 3200 
L 1728 0 
L 588 0 
L 588 4666 
z
" transform="scale(0.015625)"/>
      <path id="DejaVuSans-Bold-65" d="M 4031 1759 
L 4031 1441 
L 1416 1441 
Q 1456 1047 1700 850 
Q 1944 653 2381 653 
Q 2734 653 3104 758 
Q 3475 863 3866 1075 
L 3866 213 
Q 3469 63 3072 -14 
Q 2675 -91 2278 -91 
Q 1328 -91 801 392 
Q 275 875 275 1747 
Q 275 2603 792 3093 
Q 1309 3584 2216 3584 
Q 3041 3584 3536 3087 
Q 4031 2591 4031 1759 
z
M 2881 2131 
Q 2881 2450 2695 2645 
Q 2509 2841 2209 2841 
Q 1884 2841 1681 2658 
Q 1478 2475 1428 2131 
L 2881 2131 
z
" transform="scale(0.015625)"/>
      <path id="DejaVuSans-Bold-78" d="M 1422 1791 
L 159 3500 
L 1344 3500 
L 2059 2463 
L 2784 3500 
L 3969 3500 
L 2706 1797 
L 4031 0 
L 2847 0 
L 2059 1106 
L 1281 0 
L 97 0 
L 1422 1791 
z
" transform="scale(0.015625)"/>
      <path id="DejaVuSans-Bold-74" d="M 1759 4494 
L 1759 3500 
L 2913 3500 
L 2913 2700 
L 1759 2700 
L 1759 1216 
Q 1759 972 1856 886 
Q 1953 800 2241 800 
L 2816 800 
L 2816 0 
L 1856 0 
Q 1194 0 917 276 
Q 641 553 641 1216 
L 641 2700 
L 84 2700 
L 84 3500 
L 641 3500 
L 641 4494 
L 1759 4494 
z
" transform="scale(0.015625)"/>
      <path id="DejaVuSans-Bold-2e" d="M 653 1209 
L 1778 1209 
L 1778 0 
L 653 0 
L 653 1209 
z
" transform="scale(0.015625)"/>
      <path id="DejaVuSans-Bold-6a" d="M 538 3500 
L 1656 3500 
L 1656 63 
Q 1656 -641 1318 -1011 
Q 981 -1381 341 -1381 
L -213 -1381 
L -213 -647 
L -19 -647 
Q 300 -647 419 -503 
Q 538 -359 538 63 
L 538 3500 
z
M 538 4863 
L 1656 4863 
L 1656 3950 
L 538 3950 
L 538 4863 
z
" transform="scale(0.015625)"/>
      <path id="DejaVuSans-Bold-73" d="M 3272 3391 
L 3272 2541 
Q 2913 2691 2578 2766 
Q 2244 2841 1947 2841 
Q 1628 2841 1473 2761 
Q 1319 2681 1319 2516 
Q 1319 2381 1436 2309 
Q 1553 2238 1856 2203 
L 2053 2175 
Q 2913 2066 3209 1816 
Q 3506 1566 3506 1031 
Q 3506 472 3093 190 
Q 2681 -91 1863 -91 
Q 1516 -91 1145 -36 
Q 775 19 384 128 
L 384 978 
Q 719 816 1070 734 
Q 1422 653 1784 653 
Q 2113 653 2278 743 
Q 2444 834 2444 1013 
Q 2444 1163 2330 1236 
Q 2216 1309 1875 1350 
L 1678 1375 
Q 931 1469 631 1722 
Q 331 1975 331 2491 
Q 331 3047 712 3315 
Q 1094 3584 1881 3584 
Q 2191 3584 2531 3537 
Q 2872 3491 3272 3391 
z
" transform="scale(0.015625)"/>
      <path id="DejaVuSans-Bold-20" transform="scale(0.015625)"/>
      <path id="DejaVuSans-Bold-46" d="M 588 4666 
L 3834 4666 
L 3834 3756 
L 1791 3756 
L 1791 2888 
L 3713 2888 
L 3713 1978 
L 1791 1978 
L 1791 0 
L 588 0 
L 588 4666 
z
" transform="scale(0.015625)"/>
      <path id="DejaVuSans-Bold-72" d="M 3138 2547 
Q 2991 2616 2845 2648 
Q 2700 2681 2553 2681 
Q 2122 2681 1889 2404 
Q 1656 2128 1656 1613 
L 1656 0 
L 538 0 
L 538 3500 
L 1656 3500 
L 1656 2925 
Q 1872 3269 2151 3426 
Q 2431 3584 2822 3584 
Q 2878 3584 2943 3579 
Q 3009 3575 3134 3559 
L 3138 2547 
z
" transform="scale(0.015625)"/>
      <path id="DejaVuSans-Bold-6f" d="M 2203 2784 
Q 1831 2784 1636 2517 
Q 1441 2250 1441 1747 
Q 1441 1244 1636 976 
Q 1831 709 2203 709 
Q 2569 709 2762 976 
Q 2956 1244 2956 1747 
Q 2956 2250 2762 2517 
Q 2569 2784 2203 2784 
z
M 2203 3584 
Q 3106 3584 3614 3096 
Q 4122 2609 4122 1747 
Q 4122 884 3614 396 
Q 3106 -91 2203 -91 
Q 1297 -91 786 396 
Q 275 884 275 1747 
Q 275 2609 786 3096 
Q 1297 3584 2203 3584 
z
" transform="scale(0.015625)"/>
      <path id="DejaVuSans-Bold-6e" d="M 4056 2131 
L 4056 0 
L 2931 0 
L 2931 347 
L 2931 1631 
Q 2931 2084 2911 2256 
Q 2891 2428 2841 2509 
Q 2775 2619 2662 2680 
Q 2550 2741 2406 2741 
Q 2056 2741 1856 2470 
Q 1656 2200 1656 1722 
L 1656 0 
L 538 0 
L 538 3500 
L 1656 3500 
L 1656 2988 
Q 1909 3294 2193 3439 
Q 2478 3584 2822 3584 
Q 3428 3584 3742 3212 
Q 4056 2841 4056 2131 
z
" transform="scale(0.015625)"/>
      <path id="DejaVuSans-Bold-64" d="M 2919 2988 
L 2919 4863 
L 4044 4863 
L 4044 0 
L 2919 0 
L 2919 506 
Q 2688 197 2409 53 
Q 2131 -91 1766 -91 
Q 1119 -91 703 423 
Q 288 938 288 1747 
Q 288 2556 703 3070 
Q 1119 3584 1766 3584 
Q 2128 3584 2408 3439 
Q 2688 3294 2919 2988 
z
M 2181 722 
Q 2541 722 2730 984 
Q 2919 1247 2919 1747 
Q 2919 2247 2730 2509 
Q 2541 2772 2181 2772 
Q 1825 2772 1636 2509 
Q 1447 2247 1447 1747 
Q 1447 1247 1636 984 
Q 1825 722 2181 722 
z
" transform="scale(0.015625)"/>
      <path id="DejaVuSans-Bold-43" d="M 4288 256 
Q 3956 84 3597 -3 
Q 3238 -91 2847 -91 
Q 1681 -91 1000 561 
Q 319 1213 319 2328 
Q 319 3447 1000 4098 
Q 1681 4750 2847 4750 
Q 3238 4750 3597 4662 
Q 3956 4575 4288 4403 
L 4288 3438 
Q 3953 3666 3628 3772 
Q 3303 3878 2944 3878 
Q 2300 3878 1931 3465 
Q 1563 3053 1563 2328 
Q 1563 1606 1931 1193 
Q 2300 781 2944 781 
Q 3303 781 3628 887 
Q 3953 994 4288 1222 
L 4288 256 
z
" transform="scale(0.015625)"/>
      <path id="DejaVuSans-Bold-61" d="M 2106 1575 
Q 1756 1575 1579 1456 
Q 1403 1338 1403 1106 
Q 1403 894 1545 773 
Q 1688 653 1941 653 
Q 2256 653 2472 879 
Q 2688 1106 2688 1447 
L 2688 1575 
L 2106 1575 
z
M 3816 1997 
L 3816 0 
L 2688 0 
L 2688 519 
Q 2463 200 2181 54 
Q 1900 -91 1497 -91 
Q 953 -91 614 226 
Q 275 544 275 1050 
Q 275 1666 698 1953 
Q 1122 2241 2028 2241 
L 2688 2241 
L 2688 2328 
Q 2688 2594 2478 2717 
Q 2269 2841 1825 2841 
Q 1466 2841 1156 2769 
Q 847 2697 581 2553 
L 581 3406 
Q 941 3494 1303 3539 
Q 1666 3584 2028 3584 
Q 2975 3584 3395 3211 
Q 3816 2838 3816 1997 
z
" transform="scale(0.015625)"/>
      <path id="DejaVuSans-Bold-69" d="M 538 3500 
L 1656 3500 
L 1656 0 
L 538 0 
L 538 3500 
z
M 538 4863 
L 1656 4863 
L 1656 3950 
L 538 3950 
L 538 4863 
z
" transform="scale(0.015625)"/>
     </defs>
     <use xlink:href="#DejaVuSans-Bold-4e"/>
     <use xlink:href="#DejaVuSans-Bold-65" transform="translate(83.691406 0)"/>
     <use xlink:href="#DejaVuSans-Bold-78" transform="translate(151.513672 0)"/>
     <use xlink:href="#DejaVuSans-Bold-74" transform="translate(216.015625 0)"/>
     <use xlink:href="#DejaVuSans-Bold-2e" transform="translate(263.818359 0)"/>
     <use xlink:href="#DejaVuSans-Bold-6a" transform="translate(301.806641 0)"/>
     <use xlink:href="#DejaVuSans-Bold-73" transform="translate(336.083984 0)"/>
     <use xlink:href="#DejaVuSans-Bold-20" transform="translate(395.605469 0)"/>
     <use xlink:href="#DejaVuSans-Bold-46" transform="translate(430.419922 0)"/>
     <use xlink:href="#DejaVuSans-Bold-72" transform="translate(492.355469 0)"/>
     <use xlink:href="#DejaVuSans-Bold-6f" transform="translate(541.671875 0)"/>
     <use xlink:href="#DejaVuSans-Bold-6e" transform="translate(610.373047 0)"/>
     <use xlink:href="#DejaVuSans-Bold-74" transform="translate(681.564453 0)"/>
     <use xlink:href="#DejaVuSans-Bold-65" transform="translate(729.367188 0)"/>
     <use xlink:href="#DejaVuSans-Bold-6e" transform="translate(797.189453 0)"/>
     <use xlink:href="#DejaVuSans-Bold-64" transform="translate(868.380859 0)"/>
     <use xlink:href="#DejaVuSans-Bold-20" transform="translate(939.962891 0)"/>
     <use xlink:href="#DejaVuSans-Bold-43" transform="translate(974.777344 0)"/>
     <use xlink:href="#DejaVuSans-Bold-6f" transform="translate(1048.166016 0)"/>
     <use xlink:href="#DejaVuSans-Bold-6e" transform="translate(1116.867188 0)"/>
     <use xlink:href="#DejaVuSans-Bold-74" transform="translate(1188.058594 0)"/>
     <use xlink:href="#DejaVuSans-Bold-61" transform="translate(1235.861328 0)"/>
     <use xlink:href="#DejaVuSans-Bold-69" transform="translate(1303.341797 0)"/>
     <use xlink:href="#DejaVuSans-Bold-6e" transform="translate(1337.619141 0)"/>
     <use xlink:href="#DejaVuSans-Bold-65" transform="translate(1408.810547 0)"/>
     <use xlink:href="#DejaVuSans-Bold-72" transform="translate(1476.632812 0)"/>
    </g>
   </g>
   <g id="text_2">
    <!-- Public Pages -->
    <g transform="translate(109.268125 142.341) scale(0.08 -0.08)">
     <defs>
      <path id="DejaVuSans-50" d="M 1259 4147 
L 1259 2394 
L 2053 2394 
Q 2494 2394 2734 2622 
Q 2975 2850 2975 3272 
Q 2975 3691 2734 3919 
Q 2494 4147 2053 4147 
L 1259 4147 
z
M 628 4666 
L 2053 4666 
Q 2838 4666 3239 4311 
Q 3641 3956 3641 3272 
Q 3641 2581 3239 2228 
Q 2838 1875 2053 1875 
L 1259 1875 
L 1259 0 
L 628 0 
L 628 4666 
z
" transform="scale(0.015625)"/>
      <path id="DejaVuSans-75" d="M 544 1381 
L 544 3500 
L 1119 3500 
L 1119 1403 
Q 1119 906 1312 657 
Q 1506 409 1894 409 
Q 2359 409 2629 706 
Q 2900 1003 2900 1516 
L 2900 3500 
L 3475 3500 
L 3475 0 
L 2900 0 
L 2900 538 
Q 2691 219 2414 64 
Q 2138 -91 1772 -91 
Q 1169 -91 856 284 
Q 544 659 544 1381 
z
M 1991 3584 
L 1991 3584 
z
" transform="scale(0.015625)"/>
      <path id="DejaVuSans-62" d="M 3116 1747 
Q 3116 2381 2855 2742 
Q 2594 3103 2138 3103 
Q 1681 3103 1420 2742 
Q 1159 2381 1159 1747 
Q 1159 1113 1420 752 
Q 1681 391 2138 391 
Q 2594 391 2855 752 
Q 3116 1113 3116 1747 
z
M 1159 2969 
Q 1341 3281 1617 3432 
Q 1894 3584 2278 3584 
Q 2916 3584 3314 3078 
Q 3713 2572 3713 1747 
Q 3713 922 3314 415 
Q 2916 -91 2278 -91 
Q 1894 -91 1617 61 
Q 1341 213 1159 525 
L 1159 0 
L 581 0 
L 581 4863 
L 1159 4863 
L 1159 2969 
z
" transform="scale(0.015625)"/>
      <path id="DejaVuSans-6c" d="M 603 4863 
L 1178 4863 
L 1178 0 
L 603 0 
L 603 4863 
z
" transform="scale(0.015625)"/>
      <path id="DejaVuSans-69" d="M 603 3500 
L 1178 3500 
L 1178 0 
L 603 0 
L 603 3500 
z
M 603 4863 
L 1178 4863 
L 1178 4134 
L 603 4134 
L 603 4863 
z
" transform="scale(0.015625)"/>
      <path id="DejaVuSans-63" d="M 3122 3366 
L 3122 2828 
Q 2878 2963 2633 3030 
Q 2388 3097 2138 3097 
Q 1578 3097 1268 2742 
Q 959 2388 959 1747 
Q 959 1106 1268 751 
Q 1578 397 2138 397 
Q 2388 397 2633 464 
Q 2878 531 3122 666 
L 3122 134 
Q 2881 22 2623 -34 
Q 2366 -91 2075 -91 
Q 1284 -91 818 406 
Q 353 903 353 1747 
Q 353 2603 823 3093 
Q 1294 3584 2113 3584 
Q 2378 3584 2631 3529 
Q 2884 3475 3122 3366 
z
" transform="scale(0.015625)"/>
      <path id="DejaVuSans-20" transform="scale(0.015625)"/>
      <path id="DejaVuSans-61" d="M 2194 1759 
Q 1497 1759 1228 1600 
Q 959 1441 959 1056 
Q 959 750 1161 570 
Q 1363 391 1709 391 
Q 2188 391 2477 730 
Q 2766 1069 2766 1631 
L 2766 1759 
L 2194 1759 
z
M 3341 1997 
L 3341 0 
L 2766 0 
L 2766 531 
Q 2569 213 2275 61 
Q 1981 -91 1556 -91 
Q 1019 -91 701 211 
Q 384 513 384 1019 
Q 384 1609 779 1909 
Q 1175 2209 1959 2209 
L 2766 2209 
L 2766 2266 
Q 2766 2663 2505 2880 
Q 2244 3097 1772 3097 
Q 1472 3097 1187 3025 
Q 903 2953 641 2809 
L 641 3341 
Q 956 3463 1253 3523 
Q 1550 3584 1831 3584 
Q 2591 3584 2966 3190 
Q 3341 2797 3341 1997 
z
" transform="scale(0.015625)"/>
      <path id="DejaVuSans-67" d="M 2906 1791 
Q 2906 2416 2648 2759 
Q 2391 3103 1925 3103 
Q 1463 3103 1205 2759 
Q 947 2416 947 1791 
Q 947 1169 1205 825 
Q 1463 481 1925 481 
Q 2391 481 2648 825 
Q 2906 1169 2906 1791 
z
M 3481 434 
Q 3481 -459 3084 -895 
Q 2688 -1331 1869 -1331 
Q 1566 -1331 1297 -1286 
Q 1028 -1241 775 -1147 
L 775 -588 
Q 1028 -725 1275 -790 
Q 1522 -856 1778 -856 
Q 2344 -856 2625 -561 
Q 2906 -266 2906 331 
L 2906 616 
Q 2728 306 2450 153 
Q 2172 0 1784 0 
Q 1141 0 747 490 
Q 353 981 353 1791 
Q 353 2603 747 3093 
Q 1141 3584 1784 3584 
Q 2172 3584 2450 3431 
Q 2728 3278 2906 2969 
L 2906 3500 
L 3481 3500 
L 3481 434 
z
" transform="scale(0.015625)"/>
      <path id="DejaVuSans-65" d="M 3597 1894 
L 3597 1613 
L 953 1613 
Q 991 1019 1311 708 
Q 1631 397 2203 397 
Q 2534 397 2845 478 
Q 3156 559 3463 722 
L 3463 178 
Q 3153 47 2828 -22 
Q 2503 -91 2169 -91 
Q 1331 -91 842 396 
Q 353 884 353 1716 
Q 353 2575 817 3079 
Q 1281 3584 2069 3584 
Q 2775 3584 3186 3129 
Q 3597 2675 3597 1894 
z
M 3022 2063 
Q 3016 2534 2758 2815 
Q 2500 3097 2075 3097 
Q 1594 3097 1305 2825 
Q 1016 2553 972 2059 
L 3022 2063 
z
" transform="scale(0.015625)"/>
      <path id="DejaVuSans-73" d="M 2834 3397 
L 2834 2853 
Q 2591 2978 2328 3040 
Q 2066 3103 1784 3103 
Q 1356 3103 1142 2972 
Q 928 2841 928 2578 
Q 928 2378 1081 2264 
Q 1234 2150 1697 2047 
L 1894 2003 
Q 2506 1872 2764 1633 
Q 3022 1394 3022 966 
Q 3022 478 2636 193 
Q 2250 -91 1575 -91 
Q 1294 -91 989 -36 
Q 684 19 347 128 
L 347 722 
Q 666 556 975 473 
Q 1284 391 1588 391 
Q 1994 391 2212 530 
Q 2431 669 2431 922 
Q 2431 1156 2273 1281 
Q 2116 1406 1581 1522 
L 1381 1569 
Q 847 1681 609 1914 
Q 372 2147 372 2553 
Q 372 3047 722 3315 
Q 1072 3584 1716 3584 
Q 2034 3584 2315 3537 
Q 2597 3491 2834 3397 
z
" transform="scale(0.015625)"/>
     </defs>
     <use xlink:href="#DejaVuSans-50"/>
     <use xlink:href="#DejaVuSans-75" transform="translate(58.552734 0)"/>
     <use xlink:href="#DejaVuSans-62" transform="translate(121.931641 0)"/>
     <use xlink:href="#DejaVuSans-6c" transform="translate(185.408203 0)"/>
     <use xlink:href="#DejaVuSans-69" transform="translate(213.191406 0)"/>
     <use xlink:href="#DejaVuSans-63" transform="translate(240.974609 0)"/>
     <use xlink:href="#DejaVuSans-20" transform="translate(295.955078 0)"/>
     <use xlink:href="#DejaVuSans-50" transform="translate(327.742188 0)"/>
     <use xlink:href="#DejaVuSans-61" transform="translate(383.544922 0)"/>
     <use xlink:href="#DejaVuSans-67" transform="translate(444.824219 0)"/>
     <use xlink:href="#DejaVuSans-65" transform="translate(508.300781 0)"/>
     <use xlink:href="#DejaVuSans-73" transform="translate(569.824219 0)"/>
    </g>
    <!-- [Component] -->
    <g transform="translate(107.800625 151.29925) scale(0.08 -0.08)">
     <defs>
      <path id="DejaVuSans-5b" d="M 550 4863 
L 1875 4863 
L 1875 4416 
L 1125 4416 
L 1125 -397 
L 1875 -397 
L 1875 -844 
L 550 -844 
L 550 4863 
z
" transform="scale(0.015625)"/>
      <path id="DejaVuSans-43" d="M 4122 4306 
L 4122 3641 
Q 3803 3938 3442 4084 
Q 3081 4231 2675 4231 
Q 1875 4231 1450 3742 
Q 1025 3253 1025 2328 
Q 1025 1406 1450 917 
Q 1875 428 2675 428 
Q 3081 428 3442 575 
Q 3803 722 4122 1019 
L 4122 359 
Q 3791 134 3420 21 
Q 3050 -91 2638 -91 
Q 1578 -91 968 557 
Q 359 1206 359 2328 
Q 359 3453 968 4101 
Q 1578 4750 2638 4750 
Q 3056 4750 3426 4639 
Q 3797 4528 4122 4306 
z
" transform="scale(0.015625)"/>
      <path id="DejaVuSans-6f" d="M 1959 3097 
Q 1497 3097 1228 2736 
Q 959 2375 959 1747 
Q 959 1119 1226 758 
Q 1494 397 1959 397 
Q 2419 397 2687 759 
Q 2956 1122 2956 1747 
Q 2956 2369 2687 2733 
Q 2419 3097 1959 3097 
z
M 1959 3584 
Q 2709 3584 3137 3096 
Q 3566 2609 3566 1747 
Q 3566 888 3137 398 
Q 2709 -91 1959 -91 
Q 1206 -91 779 398 
Q 353 888 353 1747 
Q 353 2609 779 3096 
Q 1206 3584 1959 3584 
z
" transform="scale(0.015625)"/>
      <path id="DejaVuSans-6d" d="M 3328 2828 
Q 3544 3216 3844 3400 
Q 4144 3584 4550 3584 
Q 5097 3584 5394 3201 
Q 5691 2819 5691 2113 
L 5691 0 
L 5113 0 
L 5113 2094 
Q 5113 2597 4934 2840 
Q 4756 3084 4391 3084 
Q 3944 3084 3684 2787 
Q 3425 2491 3425 1978 
L 3425 0 
L 2847 0 
L 2847 2094 
Q 2847 2600 2669 2842 
Q 2491 3084 2119 3084 
Q 1678 3084 1418 2786 
Q 1159 2488 1159 1978 
L 1159 0 
L 581 0 
L 581 3500 
L 1159 3500 
L 1159 2956 
Q 1356 3278 1631 3431 
Q 1906 3584 2284 3584 
Q 2666 3584 2933 3390 
Q 3200 3197 3328 2828 
z
" transform="scale(0.015625)"/>
      <path id="DejaVuSans-70" d="M 1159 525 
L 1159 -1331 
L 581 -1331 
L 581 3500 
L 1159 3500 
L 1159 2969 
Q 1341 3281 1617 3432 
Q 1894 3584 2278 3584 
Q 2916 3584 3314 3078 
Q 3713 2572 3713 1747 
Q 3713 922 3314 415 
Q 2916 -91 2278 -91 
Q 1894 -91 1617 61 
Q 1341 213 1159 525 
z
M 3116 1747 
Q 3116 2381 2855 2742 
Q 2594 3103 2138 3103 
Q 1681 3103 1420 2742 
Q 1159 2381 1159 1747 
Q 1159 1113 1420 752 
Q 1681 391 2138 391 
Q 2594 391 2855 752 
Q 3116 1113 3116 1747 
z
" transform="scale(0.015625)"/>
      <path id="DejaVuSans-6e" d="M 3513 2113 
L 3513 0 
L 2938 0 
L 2938 2094 
Q 2938 2591 2744 2837 
Q 2550 3084 2163 3084 
Q 1697 3084 1428 2787 
Q 1159 2491 1159 1978 
L 1159 0 
L 581 0 
L 581 3500 
L 1159 3500 
L 1159 2956 
Q 1366 3272 1645 3428 
Q 1925 3584 2291 3584 
Q 2894 3584 3203 3211 
Q 3513 2838 3513 2113 
z
" transform="scale(0.015625)"/>
      <path id="DejaVuSans-74" d="M 1172 4494 
L 1172 3500 
L 2356 3500 
L 2356 3053 
L 1172 3053 
L 1172 1153 
Q 1172 725 1289 603 
Q 1406 481 1766 481 
L 2356 481 
L 2356 0 
L 1766 0 
Q 1100 0 847 248 
Q 594 497 594 1153 
L 594 3053 
L 172 3053 
L 172 3500 
L 594 3500 
L 594 4494 
L 1172 4494 
z
" transform="scale(0.015625)"/>
      <path id="DejaVuSans-5d" d="M 1947 4863 
L 1947 -844 
L 622 -844 
L 622 -397 
L 1369 -397 
L 1369 4416 
L 622 4416 
L 622 4863 
L 1947 4863 
z
" transform="scale(0.015625)"/>
     </defs>
     <use xlink:href="#DejaVuSans-5b"/>
     <use xlink:href="#DejaVuSans-43" transform="translate(39.013672 0)"/>
     <use xlink:href="#DejaVuSans-6f" transform="translate(108.837891 0)"/>
     <use xlink:href="#DejaVuSans-6d" transform="translate(170.019531 0)"/>
     <use xlink:href="#DejaVuSans-70" transform="translate(267.431641 0)"/>
     <use xlink:href="#DejaVuSans-6f" transform="translate(330.908203 0)"/>
     <use xlink:href="#DejaVuSans-6e" transform="translate(392.089844 0)"/>
     <use xlink:href="#DejaVuSans-65" transform="translate(455.46875 0)"/>
     <use xlink:href="#DejaVuSans-6e" transform="translate(516.992188 0)"/>
     <use xlink:href="#DejaVuSans-74" transform="translate(580.371094 0)"/>
     <use xlink:href="#DejaVuSans-5d" transform="translate(619.580078 0)"/>
    </g>
    <!-- Homepage, signin, signup. -->
    <g transform="translate(80.725 160.2575) scale(0.08 -0.08)">
     <defs>
      <path id="DejaVuSans-48" d="M 628 4666 
L 1259 4666 
L 1259 2753 
L 3553 2753 
L 3553 4666 
L 4184 4666 
L 4184 0 
L 3553 0 
L 3553 2222 
L 1259 2222 
L 1259 0 
L 628 0 
L 628 4666 
z
" transform="scale(0.015625)"/>
      <path id="DejaVuSans-2c" d="M 750 794 
L 1409 794 
L 1409 256 
L 897 -744 
L 494 -744 
L 750 256 
L 750 794 
z
" transform="scale(0.015625)"/>
      <path id="DejaVuSans-2e" d="M 684 794 
L 1344 794 
L 1344 0 
L 684 0 
L 684 794 
z
" transform="scale(0.015625)"/>
     </defs>
     <use xlink:href="#DejaVuSans-48"/>
     <use xlink:href="#DejaVuSans-6f" transform="translate(75.195312 0)"/>
     <use xlink:href="#DejaVuSans-6d" transform="translate(136.376953 0)"/>
     <use xlink:href="#DejaVuSans-65" transform="translate(233.789062 0)"/>
     <use xlink:href="#DejaVuSans-70" transform="translate(295.3125 0)"/>
     <use xlink:href="#DejaVuSans-61" transform="translate(358.789062 0)"/>
     <use xlink:href="#DejaVuSans-67" transform="translate(420.068359 0)"/>
     <use xlink:href="#DejaVuSans-65" transform="translate(483.544922 0)"/>
     <use xlink:href="#DejaVuSans-2c" transform="translate(545.068359 0)"/>
     <use xlink:href="#DejaVuSans-20" transform="translate(576.855469 0)"/>
     <use xlink:href="#DejaVuSans-73" transform="translate(608.642578 0)"/>
     <use xlink:href="#DejaVuSans-69" transform="translate(660.742188 0)"/>
     <use xlink:href="#DejaVuSans-67" transform="translate(688.525391 0)"/>
     <use xlink:href="#DejaVuSans-6e" transform="translate(752.001953 0)"/>
     <use xlink:href="#DejaVuSans-69" transform="translate(815.380859 0)"/>
     <use xlink:href="#DejaVuSans-6e" transform="translate(843.164062 0)"/>
     <use xlink:href="#DejaVuSans-2c" transform="translate(906.542969 0)"/>
     <use xlink:href="#DejaVuSans-20" transform="translate(938.330078 0)"/>
     <use xlink:href="#DejaVuSans-73" transform="translate(970.117188 0)"/>
     <use xlink:href="#DejaVuSans-69" transform="translate(1022.216797 0)"/>
     <use xlink:href="#DejaVuSans-67" transform="translate(1050 0)"/>
     <use xlink:href="#DejaVuSans-6e" transform="translate(1113.476562 0)"/>
     <use xlink:href="#DejaVuSans-75" transform="translate(1176.855469 0)"/>
     <use xlink:href="#DejaVuSans-70" transform="translate(1240.234375 0)"/>
     <use xlink:href="#DejaVuSans-2e" transform="translate(1303.710938 0)"/>
    </g>
   </g>
   <g id="text_3">
    <!-- Protected Pages -->
    <g transform="translate(264.715 142.341) scale(0.08 -0.08)">
     <defs>
      <path id="DejaVuSans-72" d="M 2631 2963 
Q 2534 3019 2420 3045 
Q 2306 3072 2169 3072 
Q 1681 3072 1420 2755 
Q 1159 2438 1159 1844 
L 1159 0 
L 581 0 
L 581 3500 
L 1159 3500 
L 1159 2956 
Q 1341 3275 1631 3429 
Q 1922 3584 2338 3584 
Q 2397 3584 2469 3576 
Q 2541 3569 2628 3553 
L 2631 2963 
z
" transform="scale(0.015625)"/>
      <path id="DejaVuSans-64" d="M 2906 2969 
L 2906 4863 
L 3481 4863 
L 3481 0 
L 2906 0 
L 2906 525 
Q 2725 213 2448 61 
Q 2172 -91 1784 -91 
Q 1150 -91 751 415 
Q 353 922 353 1747 
Q 353 2572 751 3078 
Q 1150 3584 1784 3584 
Q 2172 3584 2448 3432 
Q 2725 3281 2906 2969 
z
M 947 1747 
Q 947 1113 1208 752 
Q 1469 391 1925 391 
Q 2381 391 2643 752 
Q 2906 1113 2906 1747 
Q 2906 2381 2643 2742 
Q 2381 3103 1925 3103 
Q 1469 3103 1208 2742 
Q 947 2381 947 1747 
z
" transform="scale(0.015625)"/>
     </defs>
     <use xlink:href="#DejaVuSans-50"/>
     <use xlink:href="#DejaVuSans-72" transform="translate(58.552734 0)"/>
     <use xlink:href="#DejaVuSans-6f" transform="translate(97.416016 0)"/>
     <use xlink:href="#DejaVuSans-74" transform="translate(158.597656 0)"/>
     <use xlink:href="#DejaVuSans-65" transform="translate(197.806641 0)"/>
     <use xlink:href="#DejaVuSans-63" transform="translate(259.330078 0)"/>
     <use xlink:href="#DejaVuSans-74" transform="translate(314.310547 0)"/>
     <use xlink:href="#DejaVuSans-65" transform="translate(353.519531 0)"/>
     <use xlink:href="#DejaVuSans-64" transform="translate(415.042969 0)"/>
     <use xlink:href="#DejaVuSans-20" transform="translate(478.519531 0)"/>
     <use xlink:href="#DejaVuSans-50" transform="translate(510.306641 0)"/>
     <use xlink:href="#DejaVuSans-61" transform="translate(566.109375 0)"/>
     <use xlink:href="#DejaVuSans-67" transform="translate(627.388672 0)"/>
     <use xlink:href="#DejaVuSans-65" transform="translate(690.865234 0)"/>
     <use xlink:href="#DejaVuSans-73" transform="translate(752.388672 0)"/>
    </g>
    <!-- [Component] -->
    <g transform="translate(270.550625 151.29925) scale(0.08 -0.08)">
     <use xlink:href="#DejaVuSans-5b"/>
     <use xlink:href="#DejaVuSans-43" transform="translate(39.013672 0)"/>
     <use xlink:href="#DejaVuSans-6f" transform="translate(108.837891 0)"/>
     <use xlink:href="#DejaVuSans-6d" transform="translate(170.019531 0)"/>
     <use xlink:href="#DejaVuSans-70" transform="translate(267.431641 0)"/>
     <use xlink:href="#DejaVuSans-6f" transform="translate(330.908203 0)"/>
     <use xlink:href="#DejaVuSans-6e" transform="translate(392.089844 0)"/>
     <use xlink:href="#DejaVuSans-65" transform="translate(455.46875 0)"/>
     <use xlink:href="#DejaVuSans-6e" transform="translate(516.992188 0)"/>
     <use xlink:href="#DejaVuSans-74" transform="translate(580.371094 0)"/>
     <use xlink:href="#DejaVuSans-5d" transform="translate(619.580078 0)"/>
    </g>
    <!-- Dashboard, profile, summaries. -->
    <g transform="translate(234.040625 160.2575) scale(0.08 -0.08)">
     <defs>
      <path id="DejaVuSans-44" d="M 1259 4147 
L 1259 519 
L 2022 519 
Q 2988 519 3436 956 
Q 3884 1394 3884 2338 
Q 3884 3275 3436 3711 
Q 2988 4147 2022 4147 
L 1259 4147 
z
M 628 4666 
L 1925 4666 
Q 3281 4666 3915 4102 
Q 4550 3538 4550 2338 
Q 4550 1131 3912 565 
Q 3275 0 1925 0 
L 628 0 
L 628 4666 
z
" transform="scale(0.015625)"/>
      <path id="DejaVuSans-68" d="M 3513 2113 
L 3513 0 
L 2938 0 
L 2938 2094 
Q 2938 2591 2744 2837 
Q 2550 3084 2163 3084 
Q 1697 3084 1428 2787 
Q 1159 2491 1159 1978 
L 1159 0 
L 581 0 
L 581 4863 
L 1159 4863 
L 1159 2956 
Q 1366 3272 1645 3428 
Q 1925 3584 2291 3584 
Q 2894 3584 3203 3211 
Q 3513 2838 3513 2113 
z
" transform="scale(0.015625)"/>
      <path id="DejaVuSans-66" d="M 2375 4863 
L 2375 4384 
L 1825 4384 
Q 1516 4384 1395 4259 
Q 1275 4134 1275 3809 
L 1275 3500 
L 2222 3500 
L 2222 3053 
L 1275 3053 
L 1275 0 
L 697 0 
L 697 3053 
L 147 3053 
L 147 3500 
L 697 3500 
L 697 3744 
Q 697 4328 969 4595 
Q 1241 4863 1831 4863 
L 2375 4863 
z
" transform="scale(0.015625)"/>
     </defs>
     <use xlink:href="#DejaVuSans-44"/>
     <use xlink:href="#DejaVuSans-61" transform="translate(77.001953 0)"/>
     <use xlink:href="#DejaVuSans-73" transform="translate(138.28125 0)"/>
     <use xlink:href="#DejaVuSans-68" transform="translate(190.380859 0)"/>
     <use xlink:href="#DejaVuSans-62" transform="translate(253.759766 0)"/>
     <use xlink:href="#DejaVuSans-6f" transform="translate(317.236328 0)"/>
     <use xlink:href="#DejaVuSans-61" transform="translate(378.417969 0)"/>
     <use xlink:href="#DejaVuSans-72" transform="translate(439.697266 0)"/>
     <use xlink:href="#DejaVuSans-64" transform="translate(479.060547 0)"/>
     <use xlink:href="#DejaVuSans-2c" transform="translate(542.537109 0)"/>
     <use xlink:href="#DejaVuSans-20" transform="translate(574.324219 0)"/>
     <use xlink:href="#DejaVuSans-70" transform="translate(606.111328 0)"/>
     <use xlink:href="#DejaVuSans-72" transform="translate(669.587891 0)"/>
     <use xlink:href="#DejaVuSans-6f" transform="translate(708.451172 0)"/>
     <use xlink:href="#DejaVuSans-66" transform="translate(769.632812 0)"/>
     <use xlink:href="#DejaVuSans-69" transform="translate(804.837891 0)"/>
     <use xlink:href="#DejaVuSans-6c" transform="translate(832.621094 0)"/>
     <use xlink:href="#DejaVuSans-65" transform="translate(860.404297 0)"/>
     <use xlink:href="#DejaVuSans-2c" transform="translate(921.927734 0)"/>
     <use xlink:href="#DejaVuSans-20" transform="translate(953.714844 0)"/>
     <use xlink:href="#DejaVuSans-73" transform="translate(985.501953 0)"/>
     <use xlink:href="#DejaVuSans-75" transform="translate(1037.601562 0)"/>
     <use xlink:href="#DejaVuSans-6d" transform="translate(1100.980469 0)"/>
     <use xlink:href="#DejaVuSans-6d" transform="translate(1198.392578 0)"/>
     <use xlink:href="#DejaVuSans-61" transform="translate(1295.804688 0)"/>
     <use xlink:href="#DejaVuSans-72" transform="translate(1357.083984 0)"/>
     <use xlink:href="#DejaVuSans-69" transform="translate(1398.197266 0)"/>
     <use xlink:href="#DejaVuSans-65" transform="translate(1425.980469 0)"/>
     <use xlink:href="#DejaVuSans-73" transform="translate(1487.503906 0)"/>
     <use xlink:href="#DejaVuSans-2e" transform="translate(1539.603516 0)"/>
    </g>
   </g>
   <g id="text_4">
    <!-- Middleware -->
    <g transform="translate(436.693125 142.341) scale(0.08 -0.08)">
     <defs>
      <path id="DejaVuSans-4d" d="M 628 4666 
L 1569 4666 
L 2759 1491 
L 3956 4666 
L 4897 4666 
L 4897 0 
L 4281 0 
L 4281 4097 
L 3078 897 
L 2444 897 
L 1241 4097 
L 1241 0 
L 628 0 
L 628 4666 
z
" transform="scale(0.015625)"/>
      <path id="DejaVuSans-77" d="M 269 3500 
L 844 3500 
L 1563 769 
L 2278 3500 
L 2956 3500 
L 3675 769 
L 4391 3500 
L 4966 3500 
L 4050 0 
L 3372 0 
L 2619 2869 
L 1863 0 
L 1184 0 
L 269 3500 
z
" transform="scale(0.015625)"/>
     </defs>
     <use xlink:href="#DejaVuSans-4d"/>
     <use xlink:href="#DejaVuSans-69" transform="translate(86.279297 0)"/>
     <use xlink:href="#DejaVuSans-64" transform="translate(114.0625 0)"/>
     <use xlink:href="#DejaVuSans-64" transform="translate(177.539062 0)"/>
     <use xlink:href="#DejaVuSans-6c" transform="translate(241.015625 0)"/>
     <use xlink:href="#DejaVuSans-65" transform="translate(268.798828 0)"/>
     <use xlink:href="#DejaVuSans-77" transform="translate(330.322266 0)"/>
     <use xlink:href="#DejaVuSans-61" transform="translate(412.109375 0)"/>
     <use xlink:href="#DejaVuSans-72" transform="translate(473.388672 0)"/>
     <use xlink:href="#DejaVuSans-65" transform="translate(512.251953 0)"/>
    </g>
    <!-- [Component] -->
    <g transform="translate(433.300625 151.29925) scale(0.08 -0.08)">
     <use xlink:href="#DejaVuSans-5b"/>
     <use xlink:href="#DejaVuSans-43" transform="translate(39.013672 0)"/>
     <use xlink:href="#DejaVuSans-6f" transform="translate(108.837891 0)"/>
     <use xlink:href="#DejaVuSans-6d" transform="translate(170.019531 0)"/>
     <use xlink:href="#DejaVuSans-70" transform="translate(267.431641 0)"/>
     <use xlink:href="#DejaVuSans-6f" transform="translate(330.908203 0)"/>
     <use xlink:href="#DejaVuSans-6e" transform="translate(392.089844 0)"/>
     <use xlink:href="#DejaVuSans-65" transform="translate(455.46875 0)"/>
     <use xlink:href="#DejaVuSans-6e" transform="translate(516.992188 0)"/>
     <use xlink:href="#DejaVuSans-74" transform="translate(580.371094 0)"/>
     <use xlink:href="#DejaVuSans-5d" transform="translate(619.580078 0)"/>
    </g>
    <!-- Checks JWT for protected routes. -->
    <g transform="translate(393.833125 160.2575) scale(0.08 -0.08)">
     <defs>
      <path id="DejaVuSans-6b" d="M 581 4863 
L 1159 4863 
L 1159 1991 
L 2875 3500 
L 3609 3500 
L 1753 1863 
L 3688 0 
L 2938 0 
L 1159 1709 
L 1159 0 
L 581 0 
L 581 4863 
z
" transform="scale(0.015625)"/>
      <path id="DejaVuSans-4a" d="M 628 4666 
L 1259 4666 
L 1259 325 
Q 1259 -519 939 -900 
Q 619 -1281 -91 -1281 
L -331 -1281 
L -331 -750 
L -134 -750 
Q 284 -750 456 -515 
Q 628 -281 628 325 
L 628 4666 
z
" transform="scale(0.015625)"/>
      <path id="DejaVuSans-57" d="M 213 4666 
L 850 4666 
L 1831 722 
L 2809 4666 
L 3519 4666 
L 4500 722 
L 5478 4666 
L 6119 4666 
L 4947 0 
L 4153 0 
L 3169 4050 
L 2175 0 
L 1381 0 
L 213 4666 
z
" transform="scale(0.015625)"/>
      <path id="DejaVuSans-54" d="M -19 4666 
L 3928 4666 
L 3928 4134 
L 2272 4134 
L 2272 0 
L 1638 0 
L 1638 4134 
L -19 4134 
L -19 4666 
z
" transform="scale(0.015625)"/>
     </defs>
     <use xlink:href="#DejaVuSans-43"/>
     <use xlink:href="#DejaVuSans-68" transform="translate(69.824219 0)"/>
     <use xlink:href="#DejaVuSans-65" transform="translate(133.203125 0)"/>
     <use xlink:href="#DejaVuSans-63" transform="translate(194.726562 0)"/>
     <use xlink:href="#DejaVuSans-6b" transform="translate(249.707031 0)"/>
     <use xlink:href="#DejaVuSans-73" transform="translate(307.617188 0)"/>
     <use xlink:href="#DejaVuSans-20" transform="translate(359.716797 0)"/>
     <use xlink:href="#DejaVuSans-4a" transform="translate(391.503906 0)"/>
     <use xlink:href="#DejaVuSans-57" transform="translate(420.996094 0)"/>
     <use xlink:href="#DejaVuSans-54" transform="translate(519.873047 0)"/>
     <use xlink:href="#DejaVuSans-20" transform="translate(580.957031 0)"/>
     <use xlink:href="#DejaVuSans-66" transform="translate(612.744141 0)"/>
     <use xlink:href="#DejaVuSans-6f" transform="translate(647.949219 0)"/>
     <use xlink:href="#DejaVuSans-72" transform="translate(709.130859 0)"/>
     <use xlink:href="#DejaVuSans-20" transform="translate(750.244141 0)"/>
     <use xlink:href="#DejaVuSans-70" transform="translate(782.03125 0)"/>
     <use xlink:href="#DejaVuSans-72" transform="translate(845.507812 0)"/>
     <use xlink:href="#DejaVuSans-6f" transform="translate(884.371094 0)"/>
     <use xlink:href="#DejaVuSans-74" transform="translate(945.552734 0)"/>
     <use xlink:href="#DejaVuSans-65" transform="translate(984.761719 0)"/>
     <use xlink:href="#DejaVuSans-63" transform="translate(1046.285156 0)"/>
     <use xlink:href="#DejaVuSans-74" transform="translate(1101.265625 0)"/>
     <use xlink:href="#DejaVuSans-65" transform="translate(1140.474609 0)"/>
     <use xlink:href="#DejaVuSans-64" transform="translate(1201.998047 0)"/>
     <use xlink:href="#DejaVuSans-20" transform="translate(1265.474609 0)"/>
     <use xlink:href="#DejaVuSans-72" transform="translate(1297.261719 0)"/>
     <use xlink:href="#DejaVuSans-6f" transform="translate(1336.125 0)"/>
     <use xlink:href="#DejaVuSans-75" transform="translate(1397.306641 0)"/>
     <use xlink:href="#DejaVuSans-74" transform="translate(1460.685547 0)"/>
     <use xlink:href="#DejaVuSans-65" transform="translate(1499.894531 0)"/>
     <use xlink:href="#DejaVuSans-73" transform="translate(1561.417969 0)"/>
     <use xlink:href="#DejaVuSans-2e" transform="translate(1613.517578 0)"/>
    </g>
   </g>
   <g id="text_5">
    <!-- UI Components -->
    <g transform="translate(103.459375 234.535375) scale(0.08 -0.08)">
     <defs>
      <path id="DejaVuSans-55" d="M 556 4666 
L 1191 4666 
L 1191 1831 
Q 1191 1081 1462 751 
Q 1734 422 2344 422 
Q 2950 422 3222 751 
Q 3494 1081 3494 1831 
L 3494 4666 
L 4128 4666 
L 4128 1753 
Q 4128 841 3676 375 
Q 3225 -91 2344 -91 
Q 1459 -91 1007 375 
Q 556 841 556 1753 
L 556 4666 
z
" transform="scale(0.015625)"/>
      <path id="DejaVuSans-49" d="M 628 4666 
L 1259 4666 
L 1259 0 
L 628 0 
L 628 4666 
z
" transform="scale(0.015625)"/>
     </defs>
     <use xlink:href="#DejaVuSans-55"/>
     <use xlink:href="#DejaVuSans-49" transform="translate(73.193359 0)"/>
     <use xlink:href="#DejaVuSans-20" transform="translate(102.685547 0)"/>
     <use xlink:href="#DejaVuSans-43" transform="translate(134.472656 0)"/>
     <use xlink:href="#DejaVuSans-6f" transform="translate(204.296875 0)"/>
     <use xlink:href="#DejaVuSans-6d" transform="translate(265.478516 0)"/>
     <use xlink:href="#DejaVuSans-70" transform="translate(362.890625 0)"/>
     <use xlink:href="#DejaVuSans-6f" transform="translate(426.367188 0)"/>
     <use xlink:href="#DejaVuSans-6e" transform="translate(487.548828 0)"/>
     <use xlink:href="#DejaVuSans-65" transform="translate(550.927734 0)"/>
     <use xlink:href="#DejaVuSans-6e" transform="translate(612.451172 0)"/>
     <use xlink:href="#DejaVuSans-74" transform="translate(675.830078 0)"/>
     <use xlink:href="#DejaVuSans-73" transform="translate(715.039062 0)"/>
    </g>
    <!-- [Component] -->
    <g transform="translate(107.800625 243.493625) scale(0.08 -0.08)">
     <use xlink:href="#DejaVuSans-5b"/>
     <use xlink:href="#DejaVuSans-43" transform="translate(39.013672 0)"/>
     <use xlink:href="#DejaVuSans-6f" transform="translate(108.837891 0)"/>
     <use xlink:href="#DejaVuSans-6d" transform="translate(170.019531 0)"/>
     <use xlink:href="#DejaVuSans-70" transform="translate(267.431641 0)"/>
     <use xlink:href="#DejaVuSans-6f" transform="translate(330.908203 0)"/>
     <use xlink:href="#DejaVuSans-6e" transform="translate(392.089844 0)"/>
     <use xlink:href="#DejaVuSans-65" transform="translate(455.46875 0)"/>
     <use xlink:href="#DejaVuSans-6e" transform="translate(516.992188 0)"/>
     <use xlink:href="#DejaVuSans-74" transform="translate(580.371094 0)"/>
     <use xlink:href="#DejaVuSans-5d" transform="translate(619.580078 0)"/>
    </g>
    <!-- Forms, buttons, header, footer, -->
    <g transform="translate(71.7425 252.451875) scale(0.08 -0.08)">
     <defs>
      <path id="DejaVuSans-46" d="M 628 4666 
L 3309 4666 
L 3309 4134 
L 1259 4134 
L 1259 2759 
L 3109 2759 
L 3109 2228 
L 1259 2228 
L 1259 0 
L 628 0 
L 628 4666 
z
" transform="scale(0.015625)"/>
     </defs>
     <use xlink:href="#DejaVuSans-46"/>
     <use xlink:href="#DejaVuSans-6f" transform="translate(53.894531 0)"/>
     <use xlink:href="#DejaVuSans-72" transform="translate(115.076172 0)"/>
     <use xlink:href="#DejaVuSans-6d" transform="translate(154.439453 0)"/>
     <use xlink:href="#DejaVuSans-73" transform="translate(251.851562 0)"/>
     <use xlink:href="#DejaVuSans-2c" transform="translate(303.951172 0)"/>
     <use xlink:href="#DejaVuSans-20" transform="translate(335.738281 0)"/>
     <use xlink:href="#DejaVuSans-62" transform="translate(367.525391 0)"/>
     <use xlink:href="#DejaVuSans-75" transform="translate(431.001953 0)"/>
     <use xlink:href="#DejaVuSans-74" transform="translate(494.380859 0)"/>
     <use xlink:href="#DejaVuSans-74" transform="translate(533.589844 0)"/>
     <use xlink:href="#DejaVuSans-6f" transform="translate(572.798828 0)"/>
     <use xlink:href="#DejaVuSans-6e" transform="translate(633.980469 0)"/>
     <use xlink:href="#DejaVuSans-73" transform="translate(697.359375 0)"/>
     <use xlink:href="#DejaVuSans-2c" transform="translate(749.458984 0)"/>
     <use xlink:href="#DejaVuSans-20" transform="translate(781.246094 0)"/>
     <use xlink:href="#DejaVuSans-68" transform="translate(813.033203 0)"/>
     <use xlink:href="#DejaVuSans-65" transform="translate(876.412109 0)"/>
     <use xlink:href="#DejaVuSans-61" transform="translate(937.935547 0)"/>
     <use xlink:href="#DejaVuSans-64" transform="translate(999.214844 0)"/>
     <use xlink:href="#DejaVuSans-65" transform="translate(1062.691406 0)"/>
     <use xlink:href="#DejaVuSans-72" transform="translate(1124.214844 0)"/>
     <use xlink:href="#DejaVuSans-2c" transform="translate(1165.328125 0)"/>
     <use xlink:href="#DejaVuSans-20" transform="translate(1197.115234 0)"/>
     <use xlink:href="#DejaVuSans-66" transform="translate(1228.902344 0)"/>
     <use xlink:href="#DejaVuSans-6f" transform="translate(1264.107422 0)"/>
     <use xlink:href="#DejaVuSans-6f" transform="translate(1325.289062 0)"/>
     <use xlink:href="#DejaVuSans-74" transform="translate(1386.470703 0)"/>
     <use xlink:href="#DejaVuSans-65" transform="translate(1425.679688 0)"/>
     <use xlink:href="#DejaVuSans-72" transform="translate(1487.203125 0)"/>
     <use xlink:href="#DejaVuSans-2c" transform="translate(1528.316406 0)"/>
    </g>
    <!-- cards. -->
    <g transform="translate(122.025625 261.410125) scale(0.08 -0.08)">
     <use xlink:href="#DejaVuSans-63"/>
     <use xlink:href="#DejaVuSans-61" transform="translate(54.980469 0)"/>
     <use xlink:href="#DejaVuSans-72" transform="translate(116.259766 0)"/>
     <use xlink:href="#DejaVuSans-64" transform="translate(155.623047 0)"/>
     <use xlink:href="#DejaVuSans-73" transform="translate(219.099609 0)"/>
     <use xlink:href="#DejaVuSans-2e" transform="translate(271.199219 0)"/>
    </g>
   </g>
   <g id="text_6">
    <!-- Server Actions -->
    <g transform="translate(267.894375 234.535375) scale(0.08 -0.08)">
     <defs>
      <path id="DejaVuSans-53" d="M 3425 4513 
L 3425 3897 
Q 3066 4069 2747 4153 
Q 2428 4238 2131 4238 
Q 1616 4238 1336 4038 
Q 1056 3838 1056 3469 
Q 1056 3159 1242 3001 
Q 1428 2844 1947 2747 
L 2328 2669 
Q 3034 2534 3370 2195 
Q 3706 1856 3706 1288 
Q 3706 609 3251 259 
Q 2797 -91 1919 -91 
Q 1588 -91 1214 -16 
Q 841 59 441 206 
L 441 856 
Q 825 641 1194 531 
Q 1563 422 1919 422 
Q 2459 422 2753 634 
Q 3047 847 3047 1241 
Q 3047 1584 2836 1778 
Q 2625 1972 2144 2069 
L 1759 2144 
Q 1053 2284 737 2584 
Q 422 2884 422 3419 
Q 422 4038 858 4394 
Q 1294 4750 2059 4750 
Q 2388 4750 2728 4690 
Q 3069 4631 3425 4513 
z
" transform="scale(0.015625)"/>
      <path id="DejaVuSans-76" d="M 191 3500 
L 800 3500 
L 1894 563 
L 2988 3500 
L 3597 3500 
L 2284 0 
L 1503 0 
L 191 3500 
z
" transform="scale(0.015625)"/>
      <path id="DejaVuSans-41" d="M 2188 4044 
L 1331 1722 
L 3047 1722 
L 2188 4044 
z
M 1831 4666 
L 2547 4666 
L 4325 0 
L 3669 0 
L 3244 1197 
L 1141 1197 
L 716 0 
L 50 0 
L 1831 4666 
z
" transform="scale(0.015625)"/>
     </defs>
     <use xlink:href="#DejaVuSans-53"/>
     <use xlink:href="#DejaVuSans-65" transform="translate(63.476562 0)"/>
     <use xlink:href="#DejaVuSans-72" transform="translate(125 0)"/>
     <use xlink:href="#DejaVuSans-76" transform="translate(166.113281 0)"/>
     <use xlink:href="#DejaVuSans-65" transform="translate(225.292969 0)"/>
     <use xlink:href="#DejaVuSans-72" transform="translate(286.816406 0)"/>
     <use xlink:href="#DejaVuSans-20" transform="translate(327.929688 0)"/>
     <use xlink:href="#DejaVuSans-41" transform="translate(359.716797 0)"/>
     <use xlink:href="#DejaVuSans-63" transform="translate(426.375 0)"/>
     <use xlink:href="#DejaVuSans-74" transform="translate(481.355469 0)"/>
     <use xlink:href="#DejaVuSans-69" transform="translate(520.564453 0)"/>
     <use xlink:href="#DejaVuSans-6f" transform="translate(548.347656 0)"/>
     <use xlink:href="#DejaVuSans-6e" transform="translate(609.529297 0)"/>
     <use xlink:href="#DejaVuSans-73" transform="translate(672.908203 0)"/>
    </g>
    <!-- [Component] -->
    <g transform="translate(270.550625 243.493625) scale(0.08 -0.08)">
     <use xlink:href="#DejaVuSans-5b"/>
     <use xlink:href="#DejaVuSans-43" transform="translate(39.013672 0)"/>
     <use xlink:href="#DejaVuSans-6f" transform="translate(108.837891 0)"/>
     <use xlink:href="#DejaVuSans-6d" transform="translate(170.019531 0)"/>
     <use xlink:href="#DejaVuSans-70" transform="translate(267.431641 0)"/>
     <use xlink:href="#DejaVuSans-6f" transform="translate(330.908203 0)"/>
     <use xlink:href="#DejaVuSans-6e" transform="translate(392.089844 0)"/>
     <use xlink:href="#DejaVuSans-65" transform="translate(455.46875 0)"/>
     <use xlink:href="#DejaVuSans-6e" transform="translate(516.992188 0)"/>
     <use xlink:href="#DejaVuSans-74" transform="translate(580.371094 0)"/>
     <use xlink:href="#DejaVuSans-5d" transform="translate(619.580078 0)"/>
    </g>
    <!-- Auth, logout, upload, update, -->
    <g transform="translate(238.255 252.451875) scale(0.08 -0.08)">
     <use xlink:href="#DejaVuSans-41"/>
     <use xlink:href="#DejaVuSans-75" transform="translate(68.408203 0)"/>
     <use xlink:href="#DejaVuSans-74" transform="translate(131.787109 0)"/>
     <use xlink:href="#DejaVuSans-68" transform="translate(170.996094 0)"/>
     <use xlink:href="#DejaVuSans-2c" transform="translate(234.375 0)"/>
     <use xlink:href="#DejaVuSans-20" transform="translate(266.162109 0)"/>
     <use xlink:href="#DejaVuSans-6c" transform="translate(297.949219 0)"/>
     <use xlink:href="#DejaVuSans-6f" transform="translate(325.732422 0)"/>
     <use xlink:href="#DejaVuSans-67" transform="translate(386.914062 0)"/>
     <use xlink:href="#DejaVuSans-6f" transform="translate(450.390625 0)"/>
     <use xlink:href="#DejaVuSans-75" transform="translate(511.572266 0)"/>
     <use xlink:href="#DejaVuSans-74" transform="translate(574.951172 0)"/>
     <use xlink:href="#DejaVuSans-2c" transform="translate(614.160156 0)"/>
     <use xlink:href="#DejaVuSans-20" transform="translate(645.947266 0)"/>
     <use xlink:href="#DejaVuSans-75" transform="translate(677.734375 0)"/>
     <use xlink:href="#DejaVuSans-70" transform="translate(741.113281 0)"/>
     <use xlink:href="#DejaVuSans-6c" transform="translate(804.589844 0)"/>
     <use xlink:href="#DejaVuSans-6f" transform="translate(832.373047 0)"/>
     <use xlink:href="#DejaVuSans-61" transform="translate(893.554688 0)"/>
     <use xlink:href="#DejaVuSans-64" transform="translate(954.833984 0)"/>
     <use xlink:href="#DejaVuSans-2c" transform="translate(1018.310547 0)"/>
     <use xlink:href="#DejaVuSans-20" transform="translate(1050.097656 0)"/>
     <use xlink:href="#DejaVuSans-75" transform="translate(1081.884766 0)"/>
     <use xlink:href="#DejaVuSans-70" transform="translate(1145.263672 0)"/>
     <use xlink:href="#DejaVuSans-64" transform="translate(1208.740234 0)"/>
     <use xlink:href="#DejaVuSans-61" transform="translate(1272.216797 0)"/>
     <use xlink:href="#DejaVuSans-74" transform="translate(1333.496094 0)"/>
     <use xlink:href="#DejaVuSans-65" transform="translate(1372.705078 0)"/>
     <use xlink:href="#DejaVuSans-2c" transform="translate(1434.228516 0)"/>
    </g>
    <!-- delete. -->
    <g transform="translate(283.02125 261.410125) scale(0.08 -0.08)">
     <use xlink:href="#DejaVuSans-64"/>
     <use xlink:href="#DejaVuSans-65" transform="translate(63.476562 0)"/>
     <use xlink:href="#DejaVuSans-6c" transform="translate(125 0)"/>
     <use xlink:href="#DejaVuSans-65" transform="translate(152.783203 0)"/>
     <use xlink:href="#DejaVuSans-74" transform="translate(214.306641 0)"/>
     <use xlink:href="#DejaVuSans-65" transform="translate(253.515625 0)"/>
     <use xlink:href="#DejaVuSans-2e" transform="translate(315.039062 0)"/>
    </g>
   </g>
   <g id="text_7">
    <!-- Data Services -->
    <g transform="translate(431.955 239.0145) scale(0.08 -0.08)">
     <use xlink:href="#DejaVuSans-44"/>
     <use xlink:href="#DejaVuSans-61" transform="translate(77.001953 0)"/>
     <use xlink:href="#DejaVuSans-74" transform="translate(138.28125 0)"/>
     <use xlink:href="#DejaVuSans-61" transform="translate(177.490234 0)"/>
     <use xlink:href="#DejaVuSans-20" transform="translate(238.769531 0)"/>
     <use xlink:href="#DejaVuSans-53" transform="translate(270.556641 0)"/>
     <use xlink:href="#DejaVuSans-65" transform="translate(334.033203 0)"/>
     <use xlink:href="#DejaVuSans-72" transform="translate(395.556641 0)"/>
     <use xlink:href="#DejaVuSans-76" transform="translate(436.669922 0)"/>
     <use xlink:href="#DejaVuSans-69" transform="translate(495.849609 0)"/>
     <use xlink:href="#DejaVuSans-63" transform="translate(523.632812 0)"/>
     <use xlink:href="#DejaVuSans-65" transform="translate(578.613281 0)"/>
     <use xlink:href="#DejaVuSans-73" transform="translate(640.136719 0)"/>
    </g>
    <!-- [Component] -->
    <g transform="translate(433.300625 247.97275) scale(0.08 -0.08)">
     <use xlink:href="#DejaVuSans-5b"/>
     <use xlink:href="#DejaVuSans-43" transform="translate(39.013672 0)"/>
     <use xlink:href="#DejaVuSans-6f" transform="translate(108.837891 0)"/>
     <use xlink:href="#DejaVuSans-6d" transform="translate(170.019531 0)"/>
     <use xlink:href="#DejaVuSans-70" transform="translate(267.431641 0)"/>
     <use xlink:href="#DejaVuSans-6f" transform="translate(330.908203 0)"/>
     <use xlink:href="#DejaVuSans-6e" transform="translate(392.089844 0)"/>
     <use xlink:href="#DejaVuSans-65" transform="translate(455.46875 0)"/>
     <use xlink:href="#DejaVuSans-6e" transform="translate(516.992188 0)"/>
     <use xlink:href="#DejaVuSans-74" transform="translate(580.371094 0)"/>
     <use xlink:href="#DejaVuSans-5d" transform="translate(619.580078 0)"/>
    </g>
    <!-- Typed fetch layer for Strapi API. -->
    <g transform="translate(396.4025 256.931) scale(0.08 -0.08)">
     <defs>
      <path id="DejaVuSans-79" d="M 2059 -325 
Q 1816 -950 1584 -1140 
Q 1353 -1331 966 -1331 
L 506 -1331 
L 506 -850 
L 844 -850 
Q 1081 -850 1212 -737 
Q 1344 -625 1503 -206 
L 1606 56 
L 191 3500 
L 800 3500 
L 1894 763 
L 2988 3500 
L 3597 3500 
L 2059 -325 
z
" transform="scale(0.015625)"/>
     </defs>
     <use xlink:href="#DejaVuSans-54"/>
     <use xlink:href="#DejaVuSans-79" transform="translate(45.458984 0)"/>
     <use xlink:href="#DejaVuSans-70" transform="translate(104.638672 0)"/>
     <use xlink:href="#DejaVuSans-65" transform="translate(168.115234 0)"/>
     <use xlink:href="#DejaVuSans-64" transform="translate(229.638672 0)"/>
     <use xlink:href="#DejaVuSans-20" transform="translate(293.115234 0)"/>
     <use xlink:href="#DejaVuSans-66" transform="translate(324.902344 0)"/>
     <use xlink:href="#DejaVuSans-65" transform="translate(360.107422 0)"/>
     <use xlink:href="#DejaVuSans-74" transform="translate(421.630859 0)"/>
     <use xlink:href="#DejaVuSans-63" transform="translate(460.839844 0)"/>
     <use xlink:href="#DejaVuSans-68" transform="translate(515.820312 0)"/>
     <use xlink:href="#DejaVuSans-20" transform="translate(579.199219 0)"/>
     <use xlink:href="#DejaVuSans-6c" transform="translate(610.986328 0)"/>
     <use xlink:href="#DejaVuSans-61" transform="translate(638.769531 0)"/>
     <use xlink:href="#DejaVuSans-79" transform="translate(700.048828 0)"/>
     <use xlink:href="#DejaVuSans-65" transform="translate(759.228516 0)"/>
     <use xlink:href="#DejaVuSans-72" transform="translate(820.751953 0)"/>
     <use xlink:href="#DejaVuSans-20" transform="translate(861.865234 0)"/>
     <use xlink:href="#DejaVuSans-66" transform="translate(893.652344 0)"/>
     <use xlink:href="#DejaVuSans-6f" transform="translate(928.857422 0)"/>
     <use xlink:href="#DejaVuSans-72" transform="translate(990.039062 0)"/>
     <use xlink:href="#DejaVuSans-20" transform="translate(1031.152344 0)"/>
     <use xlink:href="#DejaVuSans-53" transform="translate(1062.939453 0)"/>
     <use xlink:href="#DejaVuSans-74" transform="translate(1126.416016 0)"/>
     <use xlink:href="#DejaVuSans-72" transform="translate(1165.625 0)"/>
     <use xlink:href="#DejaVuSans-61" transform="translate(1206.738281 0)"/>
     <use xlink:href="#DejaVuSans-70" transform="translate(1268.017578 0)"/>
     <use xlink:href="#DejaVuSans-69" transform="translate(1331.494141 0)"/>
     <use xlink:href="#DejaVuSans-20" transform="translate(1359.277344 0)"/>
     <use xlink:href="#DejaVuSans-41" transform="translate(1391.064453 0)"/>
     <use xlink:href="#DejaVuSans-50" transform="translate(1459.472656 0)"/>
     <use xlink:href="#DejaVuSans-49" transform="translate(1519.775391 0)"/>
     <use xlink:href="#DejaVuSans-2e" transform="translate(1549.267578 0)"/>
    </g>
   </g>
   <g id="text_8">
    <!-- Loaders -->
    <g transform="translate(118.35875 334.327375) scale(0.08 -0.08)">
     <defs>
      <path id="DejaVuSans-4c" d="M 628 4666 
L 1259 4666 
L 1259 531 
L 3531 531 
L 3531 0 
L 628 0 
L 628 4666 
z
" transform="scale(0.015625)"/>
     </defs>
     <use xlink:href="#DejaVuSans-4c"/>
     <use xlink:href="#DejaVuSans-6f" transform="translate(53.962891 0)"/>
     <use xlink:href="#DejaVuSans-61" transform="translate(115.144531 0)"/>
     <use xlink:href="#DejaVuSans-64" transform="translate(176.423828 0)"/>
     <use xlink:href="#DejaVuSans-65" transform="translate(239.900391 0)"/>
     <use xlink:href="#DejaVuSans-72" transform="translate(301.423828 0)"/>
     <use xlink:href="#DejaVuSans-73" transform="translate(342.537109 0)"/>
    </g>
    <!-- [Component] -->
    <g transform="translate(107.800625 343.285625) scale(0.08 -0.08)">
     <use xlink:href="#DejaVuSans-5b"/>
     <use xlink:href="#DejaVuSans-43" transform="translate(39.013672 0)"/>
     <use xlink:href="#DejaVuSans-6f" transform="translate(108.837891 0)"/>
     <use xlink:href="#DejaVuSans-6d" transform="translate(170.019531 0)"/>
     <use xlink:href="#DejaVuSans-70" transform="translate(267.431641 0)"/>
     <use xlink:href="#DejaVuSans-6f" transform="translate(330.908203 0)"/>
     <use xlink:href="#DejaVuSans-6e" transform="translate(392.089844 0)"/>
     <use xlink:href="#DejaVuSans-65" transform="translate(455.46875 0)"/>
     <use xlink:href="#DejaVuSans-6e" transform="translate(516.992188 0)"/>
     <use xlink:href="#DejaVuSans-74" transform="translate(580.371094 0)"/>
     <use xlink:href="#DejaVuSans-5d" transform="translate(619.580078 0)"/>
    </g>
    <!-- Loads Global and Home Page -->
    <g transform="translate(75.596875 352.243875) scale(0.08 -0.08)">
     <defs>
      <path id="DejaVuSans-47" d="M 3809 666 
L 3809 1919 
L 2778 1919 
L 2778 2438 
L 4434 2438 
L 4434 434 
Q 4069 175 3628 42 
Q 3188 -91 2688 -91 
Q 1594 -91 976 548 
Q 359 1188 359 2328 
Q 359 3472 976 4111 
Q 1594 4750 2688 4750 
Q 3144 4750 3555 4637 
Q 3966 4525 4313 4306 
L 4313 3634 
Q 3963 3931 3569 4081 
Q 3175 4231 2741 4231 
Q 1884 4231 1454 3753 
Q 1025 3275 1025 2328 
Q 1025 1384 1454 906 
Q 1884 428 2741 428 
Q 3075 428 3337 486 
Q 3600 544 3809 666 
z
" transform="scale(0.015625)"/>
     </defs>
     <use xlink:href="#DejaVuSans-4c"/>
     <use xlink:href="#DejaVuSans-6f" transform="translate(53.962891 0)"/>
     <use xlink:href="#DejaVuSans-61" transform="translate(115.144531 0)"/>
     <use xlink:href="#DejaVuSans-64" transform="translate(176.423828 0)"/>
     <use xlink:href="#DejaVuSans-73" transform="translate(239.900391 0)"/>
     <use xlink:href="#DejaVuSans-20" transform="translate(292 0)"/>
     <use xlink:href="#DejaVuSans-47" transform="translate(323.787109 0)"/>
     <use xlink:href="#DejaVuSans-6c" transform="translate(401.277344 0)"/>
     <use xlink:href="#DejaVuSans-6f" transform="translate(429.060547 0)"/>
     <use xlink:href="#DejaVuSans-62" transform="translate(490.242188 0)"/>
     <use xlink:href="#DejaVuSans-61" transform="translate(553.71875 0)"/>
     <use xlink:href="#DejaVuSans-6c" transform="translate(614.998047 0)"/>
     <use xlink:href="#DejaVuSans-20" transform="translate(642.78125 0)"/>
     <use xlink:href="#DejaVuSans-61" transform="translate(674.568359 0)"/>
     <use xlink:href="#DejaVuSans-6e" transform="translate(735.847656 0)"/>
     <use xlink:href="#DejaVuSans-64" transform="translate(799.226562 0)"/>
     <use xlink:href="#DejaVuSans-20" transform="translate(862.703125 0)"/>
     <use xlink:href="#DejaVuSans-48" transform="translate(894.490234 0)"/>
     <use xlink:href="#DejaVuSans-6f" transform="translate(969.685547 0)"/>
     <use xlink:href="#DejaVuSans-6d" transform="translate(1030.867188 0)"/>
     <use xlink:href="#DejaVuSans-65" transform="translate(1128.279297 0)"/>
     <use xlink:href="#DejaVuSans-20" transform="translate(1189.802734 0)"/>
     <use xlink:href="#DejaVuSans-50" transform="translate(1221.589844 0)"/>
     <use xlink:href="#DejaVuSans-61" transform="translate(1277.392578 0)"/>
     <use xlink:href="#DejaVuSans-67" transform="translate(1338.671875 0)"/>
     <use xlink:href="#DejaVuSans-65" transform="translate(1402.148438 0)"/>
    </g>
    <!-- content. -->
    <g transform="translate(117.559375 361.202125) scale(0.08 -0.08)">
     <use xlink:href="#DejaVuSans-63"/>
     <use xlink:href="#DejaVuSans-6f" transform="translate(54.980469 0)"/>
     <use xlink:href="#DejaVuSans-6e" transform="translate(116.162109 0)"/>
     <use xlink:href="#DejaVuSans-74" transform="translate(179.541016 0)"/>
     <use xlink:href="#DejaVuSans-65" transform="translate(218.75 0)"/>
     <use xlink:href="#DejaVuSans-6e" transform="translate(280.273438 0)"/>
     <use xlink:href="#DejaVuSans-74" transform="translate(343.652344 0)"/>
     <use xlink:href="#DejaVuSans-2e" transform="translate(382.861328 0)"/>
    </g>
   </g>
   <g id="text_9">
    <!-- Transcript API Route -->
    <g transform="translate(256.783125 334.327375) scale(0.08 -0.08)">
     <defs>
      <path id="DejaVuSans-52" d="M 2841 2188 
Q 3044 2119 3236 1894 
Q 3428 1669 3622 1275 
L 4263 0 
L 3584 0 
L 2988 1197 
Q 2756 1666 2539 1819 
Q 2322 1972 1947 1972 
L 1259 1972 
L 1259 0 
L 628 0 
L 628 4666 
L 2053 4666 
Q 2853 4666 3247 4331 
Q 3641 3997 3641 3322 
Q 3641 2881 3436 2590 
Q 3231 2300 2841 2188 
z
M 1259 4147 
L 1259 2491 
L 2053 2491 
Q 2509 2491 2742 2702 
Q 2975 2913 2975 3322 
Q 2975 3731 2742 3939 
Q 2509 4147 2053 4147 
L 1259 4147 
z
" transform="scale(0.015625)"/>
     </defs>
     <use xlink:href="#DejaVuSans-54"/>
     <use xlink:href="#DejaVuSans-72" transform="translate(46.333984 0)"/>
     <use xlink:href="#DejaVuSans-61" transform="translate(87.447266 0)"/>
     <use xlink:href="#DejaVuSans-6e" transform="translate(148.726562 0)"/>
     <use xlink:href="#DejaVuSans-73" transform="translate(212.105469 0)"/>
     <use xlink:href="#DejaVuSans-63" transform="translate(264.205078 0)"/>
     <use xlink:href="#DejaVuSans-72" transform="translate(319.185547 0)"/>
     <use xlink:href="#DejaVuSans-69" transform="translate(360.298828 0)"/>
     <use xlink:href="#DejaVuSans-70" transform="translate(388.082031 0)"/>
     <use xlink:href="#DejaVuSans-74" transform="translate(451.558594 0)"/>
     <use xlink:href="#DejaVuSans-20" transform="translate(490.767578 0)"/>
     <use xlink:href="#DejaVuSans-41" transform="translate(522.554688 0)"/>
     <use xlink:href="#DejaVuSans-50" transform="translate(590.962891 0)"/>
     <use xlink:href="#DejaVuSans-49" transform="translate(651.265625 0)"/>
     <use xlink:href="#DejaVuSans-20" transform="translate(680.757812 0)"/>
     <use xlink:href="#DejaVuSans-52" transform="translate(712.544922 0)"/>
     <use xlink:href="#DejaVuSans-6f" transform="translate(777.527344 0)"/>
     <use xlink:href="#DejaVuSans-75" transform="translate(838.708984 0)"/>
     <use xlink:href="#DejaVuSans-74" transform="translate(902.087891 0)"/>
     <use xlink:href="#DejaVuSans-65" transform="translate(941.296875 0)"/>
    </g>
    <!-- [Component] -->
    <g transform="translate(270.550625 343.285625) scale(0.08 -0.08)">
     <use xlink:href="#DejaVuSans-5b"/>
     <use xlink:href="#DejaVuSans-43" transform="translate(39.013672 0)"/>
     <use xlink:href="#DejaVuSans-6f" transform="translate(108.837891 0)"/>
     <use xlink:href="#DejaVuSans-6d" transform="translate(170.019531 0)"/>
     <use xlink:href="#DejaVuSans-70" transform="translate(267.431641 0)"/>
     <use xlink:href="#DejaVuSans-6f" transform="translate(330.908203 0)"/>
     <use xlink:href="#DejaVuSans-6e" transform="translate(392.089844 0)"/>
     <use xlink:href="#DejaVuSans-65" transform="translate(455.46875 0)"/>
     <use xlink:href="#DejaVuSans-6e" transform="translate(516.992188 0)"/>
     <use xlink:href="#DejaVuSans-74" transform="translate(580.371094 0)"/>
     <use xlink:href="#DejaVuSans-5d" transform="translate(619.580078 0)"/>
    </g>
    <!-- Fetches transcript, calls OpenAI, -->
    <g transform="translate(232.246875 352.243875) scale(0.08 -0.08)">
     <defs>
      <path id="DejaVuSans-4f" d="M 2522 4238 
Q 1834 4238 1429 3725 
Q 1025 3213 1025 2328 
Q 1025 1447 1429 934 
Q 1834 422 2522 422 
Q 3209 422 3611 934 
Q 4013 1447 4013 2328 
Q 4013 3213 3611 3725 
Q 3209 4238 2522 4238 
z
M 2522 4750 
Q 3503 4750 4090 4092 
Q 4678 3434 4678 2328 
Q 4678 1225 4090 567 
Q 3503 -91 2522 -91 
Q 1538 -91 948 565 
Q 359 1222 359 2328 
Q 359 3434 948 4092 
Q 1538 4750 2522 4750 
z
" transform="scale(0.015625)"/>
     </defs>
     <use xlink:href="#DejaVuSans-46"/>
     <use xlink:href="#DejaVuSans-65" transform="translate(52.019531 0)"/>
     <use xlink:href="#DejaVuSans-74" transform="translate(113.542969 0)"/>
     <use xlink:href="#DejaVuSans-63" transform="translate(152.751953 0)"/>
     <use xlink:href="#DejaVuSans-68" transform="translate(207.732422 0)"/>
     <use xlink:href="#DejaVuSans-65" transform="translate(271.111328 0)"/>
     <use xlink:href="#DejaVuSans-73" transform="translate(332.634766 0)"/>
     <use xlink:href="#DejaVuSans-20" transform="translate(384.734375 0)"/>
     <use xlink:href="#DejaVuSans-74" transform="translate(416.521484 0)"/>
     <use xlink:href="#DejaVuSans-72" transform="translate(455.730469 0)"/>
     <use xlink:href="#DejaVuSans-61" transform="translate(496.84375 0)"/>
     <use xlink:href="#DejaVuSans-6e" transform="translate(558.123047 0)"/>
     <use xlink:href="#DejaVuSans-73" transform="translate(621.501953 0)"/>
     <use xlink:href="#DejaVuSans-63" transform="translate(673.601562 0)"/>
     <use xlink:href="#DejaVuSans-72" transform="translate(728.582031 0)"/>
     <use xlink:href="#DejaVuSans-69" transform="translate(769.695312 0)"/>
     <use xlink:href="#DejaVuSans-70" transform="translate(797.478516 0)"/>
     <use xlink:href="#DejaVuSans-74" transform="translate(860.955078 0)"/>
     <use xlink:href="#DejaVuSans-2c" transform="translate(900.164062 0)"/>
     <use xlink:href="#DejaVuSans-20" transform="translate(931.951172 0)"/>
     <use xlink:href="#DejaVuSans-63" transform="translate(963.738281 0)"/>
     <use xlink:href="#DejaVuSans-61" transform="translate(1018.71875 0)"/>
     <use xlink:href="#DejaVuSans-6c" transform="translate(1079.998047 0)"/>
     <use xlink:href="#DejaVuSans-6c" transform="translate(1107.78125 0)"/>
     <use xlink:href="#DejaVuSans-73" transform="translate(1135.564453 0)"/>
     <use xlink:href="#DejaVuSans-20" transform="translate(1187.664062 0)"/>
     <use xlink:href="#DejaVuSans-4f" transform="translate(1219.451172 0)"/>
     <use xlink:href="#DejaVuSans-70" transform="translate(1298.162109 0)"/>
     <use xlink:href="#DejaVuSans-65" transform="translate(1361.638672 0)"/>
     <use xlink:href="#DejaVuSans-6e" transform="translate(1423.162109 0)"/>
     <use xlink:href="#DejaVuSans-41" transform="translate(1486.541016 0)"/>
     <use xlink:href="#DejaVuSans-49" transform="translate(1554.949219 0)"/>
     <use xlink:href="#DejaVuSans-2c" transform="translate(1584.441406 0)"/>
    </g>
    <!-- saves summary. -->
    <g transform="translate(264.600625 361.202125) scale(0.08 -0.08)">
     <use xlink:href="#DejaVuSans-73"/>
     <use xlink:href="#DejaVuSans-61" transform="translate(52.099609 0)"/>
     <use xlink:href="#DejaVuSans-76" transform="translate(113.378906 0)"/>
     <use xlink:href="#DejaVuSans-65" transform="translate(172.558594 0)"/>
     <use xlink:href="#DejaVuSans-73" transform="translate(234.082031 0)"/>
     <use xlink:href="#DejaVuSans-20" transform="translate(286.181641 0)"/>
     <use xlink:href="#DejaVuSans-73" transform="translate(317.96875 0)"/>
     <use xlink:href="#DejaVuSans-75" transform="translate(370.068359 0)"/>
     <use xlink:href="#DejaVuSans-6d" transform="translate(433.447266 0)"/>
     <use xlink:href="#DejaVuSans-6d" transform="translate(530.859375 0)"/>
     <use xlink:href="#DejaVuSans-61" transform="translate(628.271484 0)"/>
     <use xlink:href="#DejaVuSans-72" transform="translate(689.550781 0)"/>
     <use xlink:href="#DejaVuSans-79" transform="translate(730.664062 0)"/>
     <use xlink:href="#DejaVuSans-2e" transform="translate(775.59375 0)"/>
    </g>
   </g>
   <g id="text_10">
    <!-- Strapi Backend -->
    <g transform="translate(660.523125 136.104) scale(0.08 -0.08)">
     <defs>
      <path id="DejaVuSans-42" d="M 1259 2228 
L 1259 519 
L 2272 519 
Q 2781 519 3026 730 
Q 3272 941 3272 1375 
Q 3272 1813 3026 2020 
Q 2781 2228 2272 2228 
L 1259 2228 
z
M 1259 4147 
L 1259 2741 
L 2194 2741 
Q 2656 2741 2882 2914 
Q 3109 3088 3109 3444 
Q 3109 3797 2882 3972 
Q 2656 4147 2194 4147 
L 1259 4147 
z
M 628 4666 
L 2241 4666 
Q 2963 4666 3353 4366 
Q 3744 4066 3744 3513 
Q 3744 3084 3544 2831 
Q 3344 2578 2956 2516 
Q 3422 2416 3680 2098 
Q 3938 1781 3938 1306 
Q 3938 681 3513 340 
Q 3088 0 2303 0 
L 628 0 
L 628 4666 
z
" transform="scale(0.015625)"/>
     </defs>
     <use xlink:href="#DejaVuSans-53"/>
     <use xlink:href="#DejaVuSans-74" transform="translate(63.476562 0)"/>
     <use xlink:href="#DejaVuSans-72" transform="translate(102.685547 0)"/>
     <use xlink:href="#DejaVuSans-61" transform="translate(143.798828 0)"/>
     <use xlink:href="#DejaVuSans-70" transform="translate(205.078125 0)"/>
     <use xlink:href="#DejaVuSans-69" transform="translate(268.554688 0)"/>
     <use xlink:href="#DejaVuSans-20" transform="translate(296.337891 0)"/>
     <use xlink:href="#DejaVuSans-42" transform="translate(328.125 0)"/>
     <use xlink:href="#DejaVuSans-61" transform="translate(396.728516 0)"/>
     <use xlink:href="#DejaVuSans-63" transform="translate(458.007812 0)"/>
     <use xlink:href="#DejaVuSans-6b" transform="translate(512.988281 0)"/>
     <use xlink:href="#DejaVuSans-65" transform="translate(567.273438 0)"/>
     <use xlink:href="#DejaVuSans-6e" transform="translate(628.796875 0)"/>
     <use xlink:href="#DejaVuSans-64" transform="translate(692.175781 0)"/>
    </g>
    <!-- [Container] -->
    <g transform="translate(668.081875 145.06225) scale(0.08 -0.08)">
     <use xlink:href="#DejaVuSans-5b"/>
     <use xlink:href="#DejaVuSans-43" transform="translate(39.013672 0)"/>
     <use xlink:href="#DejaVuSans-6f" transform="translate(108.837891 0)"/>
     <use xlink:href="#DejaVuSans-6e" transform="translate(170.019531 0)"/>
     <use xlink:href="#DejaVuSans-74" transform="translate(233.398438 0)"/>
     <use xlink:href="#DejaVuSans-61" transform="translate(272.607422 0)"/>
     <use xlink:href="#DejaVuSans-69" transform="translate(333.886719 0)"/>
     <use xlink:href="#DejaVuSans-6e" transform="translate(361.669922 0)"/>
     <use xlink:href="#DejaVuSans-65" transform="translate(425.048828 0)"/>
     <use xlink:href="#DejaVuSans-72" transform="translate(486.572266 0)"/>
     <use xlink:href="#DejaVuSans-5d" transform="translate(527.685547 0)"/>
    </g>
    <!-- CMS, auth, media, summaries. -->
    <g transform="translate(629.355625 154.0205) scale(0.08 -0.08)">
     <use xlink:href="#DejaVuSans-43"/>
     <use xlink:href="#DejaVuSans-4d" transform="translate(69.824219 0)"/>
     <use xlink:href="#DejaVuSans-53" transform="translate(156.103516 0)"/>
     <use xlink:href="#DejaVuSans-2c" transform="translate(219.580078 0)"/>
     <use xlink:href="#DejaVuSans-20" transform="translate(251.367188 0)"/>
     <use xlink:href="#DejaVuSans-61" transform="translate(283.154297 0)"/>
     <use xlink:href="#DejaVuSans-75" transform="translate(344.433594 0)"/>
     <use xlink:href="#DejaVuSans-74" transform="translate(407.8125 0)"/>
     <use xlink:href="#DejaVuSans-68" transform="translate(447.021484 0)"/>
     <use xlink:href="#DejaVuSans-2c" transform="translate(510.400391 0)"/>
     <use xlink:href="#DejaVuSans-20" transform="translate(542.1875 0)"/>
     <use xlink:href="#DejaVuSans-6d" transform="translate(573.974609 0)"/>
     <use xlink:href="#DejaVuSans-65" transform="translate(671.386719 0)"/>
     <use xlink:href="#DejaVuSans-64" transform="translate(732.910156 0)"/>
     <use xlink:href="#DejaVuSans-69" transform="translate(796.386719 0)"/>
     <use xlink:href="#DejaVuSans-61" transform="translate(824.169922 0)"/>
     <use xlink:href="#DejaVuSans-2c" transform="translate(885.449219 0)"/>
     <use xlink:href="#DejaVuSans-20" transform="translate(917.236328 0)"/>
     <use xlink:href="#DejaVuSans-73" transform="translate(949.023438 0)"/>
     <use xlink:href="#DejaVuSans-75" transform="translate(1001.123047 0)"/>
     <use xlink:href="#DejaVuSans-6d" transform="translate(1064.501953 0)"/>
     <use xlink:href="#DejaVuSans-6d" transform="translate(1161.914062 0)"/>
     <use xlink:href="#DejaVuSans-61" transform="translate(1259.326172 0)"/>
     <use xlink:href="#DejaVuSans-72" transform="translate(1320.605469 0)"/>
     <use xlink:href="#DejaVuSans-69" transform="translate(1361.71875 0)"/>
     <use xlink:href="#DejaVuSans-65" transform="translate(1389.501953 0)"/>
     <use xlink:href="#DejaVuSans-73" transform="translate(1451.025391 0)"/>
     <use xlink:href="#DejaVuSans-2e" transform="translate(1503.125 0)"/>
    </g>
   </g>
   <g id="text_11">
    <!-- YouTube -->
    <g transform="translate(674.480625 251.4885) scale(0.08 -0.08)">
     <defs>
      <path id="DejaVuSans-59" d="M -13 4666 
L 666 4666 
L 1959 2747 
L 3244 4666 
L 3922 4666 
L 2272 2222 
L 2272 0 
L 1638 0 
L 1638 2222 
L -13 4666 
z
" transform="scale(0.015625)"/>
     </defs>
     <use xlink:href="#DejaVuSans-59"/>
     <use xlink:href="#DejaVuSans-6f" transform="translate(47.833984 0)"/>
     <use xlink:href="#DejaVuSans-75" transform="translate(109.015625 0)"/>
     <use xlink:href="#DejaVuSans-54" transform="translate(172.394531 0)"/>
     <use xlink:href="#DejaVuSans-75" transform="translate(218.353516 0)"/>
     <use xlink:href="#DejaVuSans-62" transform="translate(281.732422 0)"/>
     <use xlink:href="#DejaVuSans-65" transform="translate(345.208984 0)"/>
    </g>
    <!-- [External] -->
    <g transform="translate(671.0325 260.44675) scale(0.08 -0.08)">
     <defs>
      <path id="DejaVuSans-45" d="M 628 4666 
L 3578 4666 
L 3578 4134 
L 1259 4134 
L 1259 2753 
L 3481 2753 
L 3481 2222 
L 1259 2222 
L 1259 531 
L 3634 531 
L 3634 0 
L 628 0 
L 628 4666 
z
" transform="scale(0.015625)"/>
      <path id="DejaVuSans-78" d="M 3513 3500 
L 2247 1797 
L 3578 0 
L 2900 0 
L 1881 1375 
L 863 0 
L 184 0 
L 1544 1831 
L 300 3500 
L 978 3500 
L 1906 2253 
L 2834 3500 
L 3513 3500 
z
" transform="scale(0.015625)"/>
     </defs>
     <use xlink:href="#DejaVuSans-5b"/>
     <use xlink:href="#DejaVuSans-45" transform="translate(39.013672 0)"/>
     <use xlink:href="#DejaVuSans-78" transform="translate(102.197266 0)"/>
     <use xlink:href="#DejaVuSans-74" transform="translate(161.376953 0)"/>
     <use xlink:href="#DejaVuSans-65" transform="translate(200.585938 0)"/>
     <use xlink:href="#DejaVuSans-72" transform="translate(262.109375 0)"/>
     <use xlink:href="#DejaVuSans-6e" transform="translate(301.472656 0)"/>
     <use xlink:href="#DejaVuSans-61" transform="translate(364.851562 0)"/>
     <use xlink:href="#DejaVuSans-6c" transform="translate(426.130859 0)"/>
     <use xlink:href="#DejaVuSans-5d" transform="translate(453.914062 0)"/>
    </g>
    <!-- Captions/transcripts. -->
    <g transform="translate(649.173125 269.405) scale(0.08 -0.08)">
     <defs>
      <path id="DejaVuSans-2f" d="M 1625 4666 
L 2156 4666 
L 531 -594 
L 0 -594 
L 1625 4666 
z
" transform="scale(0.015625)"/>
     </defs>
     <use xlink:href="#DejaVuSans-43"/>
     <use xlink:href="#DejaVuSans-61" transform="translate(69.824219 0)"/>
     <use xlink:href="#DejaVuSans-70" transform="translate(131.103516 0)"/>
     <use xlink:href="#DejaVuSans-74" transform="translate(194.580078 0)"/>
     <use xlink:href="#DejaVuSans-69" transform="translate(233.789062 0)"/>
     <use xlink:href="#DejaVuSans-6f" transform="translate(261.572266 0)"/>
     <use xlink:href="#DejaVuSans-6e" transform="translate(322.753906 0)"/>
     <use xlink:href="#DejaVuSans-73" transform="translate(386.132812 0)"/>
     <use xlink:href="#DejaVuSans-2f" transform="translate(438.232422 0)"/>
     <use xlink:href="#DejaVuSans-74" transform="translate(471.923828 0)"/>
     <use xlink:href="#DejaVuSans-72" transform="translate(511.132812 0)"/>
     <use xlink:href="#DejaVuSans-61" transform="translate(552.246094 0)"/>
     <use xlink:href="#DejaVuSans-6e" transform="translate(613.525391 0)"/>
     <use xlink:href="#DejaVuSans-73" transform="translate(676.904297 0)"/>
     <use xlink:href="#DejaVuSans-63" transform="translate(729.003906 0)"/>
     <use xlink:href="#DejaVuSans-72" transform="translate(783.984375 0)"/>
     <use xlink:href="#DejaVuSans-69" transform="translate(825.097656 0)"/>
     <use xlink:href="#DejaVuSans-70" transform="translate(852.880859 0)"/>
     <use xlink:href="#DejaVuSans-74" transform="translate(916.357422 0)"/>
     <use xlink:href="#DejaVuSans-73" transform="translate(955.566406 0)"/>
     <use xlink:href="#DejaVuSans-2e" transform="translate(1007.666016 0)"/>
    </g>
   </g>
   <g id="text_12">
    <!-- OpenAI API -->
    <g transform="translate(668.55 332.5695) scale(0.08 -0.08)">
     <use xlink:href="#DejaVuSans-4f"/>
     <use xlink:href="#DejaVuSans-70" transform="translate(78.710938 0)"/>
     <use xlink:href="#DejaVuSans-65" transform="translate(142.1875 0)"/>
     <use xlink:href="#DejaVuSans-6e" transform="translate(203.710938 0)"/>
     <use xlink:href="#DejaVuSans-41" transform="translate(267.089844 0)"/>
     <use xlink:href="#DejaVuSans-49" transform="translate(335.498047 0)"/>
     <use xlink:href="#DejaVuSans-20" transform="translate(364.990234 0)"/>
     <use xlink:href="#DejaVuSans-41" transform="translate(396.777344 0)"/>
     <use xlink:href="#DejaVuSans-50" transform="translate(465.185547 0)"/>
     <use xlink:href="#DejaVuSans-49" transform="translate(525.488281 0)"/>
    </g>
    <!-- [External] -->
    <g transform="translate(671.0325 341.52775) scale(0.08 -0.08)">
     <use xlink:href="#DejaVuSans-5b"/>
     <use xlink:href="#DejaVuSans-45" transform="translate(39.013672 0)"/>
     <use xlink:href="#DejaVuSans-78" transform="translate(102.197266 0)"/>
     <use xlink:href="#DejaVuSans-74" transform="translate(161.376953 0)"/>
     <use xlink:href="#DejaVuSans-65" transform="translate(200.585938 0)"/>
     <use xlink:href="#DejaVuSans-72" transform="translate(262.109375 0)"/>
     <use xlink:href="#DejaVuSans-6e" transform="translate(301.472656 0)"/>
     <use xlink:href="#DejaVuSans-61" transform="translate(364.851562 0)"/>
     <use xlink:href="#DejaVuSans-6c" transform="translate(426.130859 0)"/>
     <use xlink:href="#DejaVuSans-5d" transform="translate(453.914062 0)"/>
    </g>
    <!-- Text generation. -->
    <g transform="translate(658.363125 350.486) scale(0.08 -0.08)">
     <use xlink:href="#DejaVuSans-54"/>
     <use xlink:href="#DejaVuSans-65" transform="translate(44.083984 0)"/>
     <use xlink:href="#DejaVuSans-78" transform="translate(103.857422 0)"/>
     <use xlink:href="#DejaVuSans-74" transform="translate(163.037109 0)"/>
     <use xlink:href="#DejaVuSans-20" transform="translate(202.246094 0)"/>
     <use xlink:href="#DejaVuSans-67" transform="translate(234.033203 0)"/>
     <use xlink:href="#DejaVuSans-65" transform="translate(297.509766 0)"/>
     <use xlink:href="#DejaVuSans-6e" transform="translate(359.033203 0)"/>
     <use xlink:href="#DejaVuSans-65" transform="translate(422.412109 0)"/>
     <use xlink:href="#DejaVuSans-72" transform="translate(483.935547 0)"/>
     <use xlink:href="#DejaVuSans-61" transform="translate(525.048828 0)"/>
     <use xlink:href="#DejaVuSans-74" transform="translate(586.328125 0)"/>
     <use xlink:href="#DejaVuSans-69" transform="translate(625.537109 0)"/>
     <use xlink:href="#DejaVuSans-6f" transform="translate(653.320312 0)"/>
     <use xlink:href="#DejaVuSans-6e" transform="translate(714.501953 0)"/>
     <use xlink:href="#DejaVuSans-2e" transform="translate(777.880859 0)"/>
    </g>
   </g>
   <g id="text_13">
    <g id="patch_25">
     <path d="M 122.136719 247.217444 
L 146.153281 247.217444 
L 146.153281 232.462756 
L 122.136719 232.462756 
z
" style="fill: #ffffff; opacity: 0.85"/>
    </g>
    <!-- uses -->
    <g transform="translate(126.126719 241.771662) scale(0.07 -0.07)">
     <use xlink:href="#DejaVuSans-75"/>
     <use xlink:href="#DejaVuSans-73" transform="translate(63.378906 0)"/>
     <use xlink:href="#DejaVuSans-65" transform="translate(115.478516 0)"/>
     <use xlink:href="#DejaVuSans-73" transform="translate(177.001953 0)"/>
    </g>
   </g>
   <g id="text_14">
    <g id="patch_26">
     <path d="M 279.064687 197.321444 
L 314.725313 197.321444 
L 314.725313 182.566756 
L 279.064687 182.566756 
z
" style="fill: #ffffff; opacity: 0.85"/>
    </g>
    <!-- submits -->
    <g transform="translate(283.054688 191.875663) scale(0.07 -0.07)">
     <use xlink:href="#DejaVuSans-73"/>
     <use xlink:href="#DejaVuSans-75" transform="translate(52.099609 0)"/>
     <use xlink:href="#DejaVuSans-62" transform="translate(115.478516 0)"/>
     <use xlink:href="#DejaVuSans-6d" transform="translate(178.955078 0)"/>
     <use xlink:href="#DejaVuSans-69" transform="translate(276.367188 0)"/>
     <use xlink:href="#DejaVuSans-74" transform="translate(304.150391 0)"/>
     <use xlink:href="#DejaVuSans-73" transform="translate(343.359375 0)"/>
    </g>
   </g>
   <g id="text_15">
    <g id="patch_27">
     <path d="M 515.857734 158.340194 
L 569.437266 158.340194 
L 569.437266 143.585506 
L 515.857734 143.585506 
z
" style="fill: #ffffff; opacity: 0.85"/>
    </g>
    <!-- validate user -->
    <g transform="translate(519.847734 152.894413) scale(0.07 -0.07)">
     <use xlink:href="#DejaVuSans-76"/>
     <use xlink:href="#DejaVuSans-61" transform="translate(59.179688 0)"/>
     <use xlink:href="#DejaVuSans-6c" transform="translate(120.458984 0)"/>
     <use xlink:href="#DejaVuSans-69" transform="translate(148.242188 0)"/>
     <use xlink:href="#DejaVuSans-64" transform="translate(176.025391 0)"/>
     <use xlink:href="#DejaVuSans-61" transform="translate(239.501953 0)"/>
     <use xlink:href="#DejaVuSans-74" transform="translate(300.78125 0)"/>
     <use xlink:href="#DejaVuSans-65" transform="translate(339.990234 0)"/>
     <use xlink:href="#DejaVuSans-20" transform="translate(401.513672 0)"/>
     <use xlink:href="#DejaVuSans-75" transform="translate(433.300781 0)"/>
     <use xlink:href="#DejaVuSans-73" transform="translate(496.679688 0)"/>
     <use xlink:href="#DejaVuSans-65" transform="translate(548.779297 0)"/>
     <use xlink:href="#DejaVuSans-72" transform="translate(610.302734 0)"/>
    </g>
   </g>
   <g id="text_16">
    <g id="patch_28">
     <path d="M 332.084219 261.250694 
L 356.100781 261.250694 
L 356.100781 246.496006 
L 332.084219 246.496006 
z
" style="fill: #ffffff; opacity: 0.85"/>
    </g>
    <!-- uses -->
    <g transform="translate(336.074219 255.804913) scale(0.07 -0.07)">
     <use xlink:href="#DejaVuSans-75"/>
     <use xlink:href="#DejaVuSans-73" transform="translate(63.378906 0)"/>
     <use xlink:href="#DejaVuSans-65" transform="translate(115.478516 0)"/>
     <use xlink:href="#DejaVuSans-73" transform="translate(177.001953 0)"/>
    </g>
   </g>
   <g id="text_17">
    <g id="patch_29">
     <path d="M 557.182344 194.202944 
L 596.467656 194.202944 
L 596.467656 179.448256 
L 557.182344 179.448256 
z
" style="fill: #ffffff; opacity: 0.85"/>
    </g>
    <!-- REST API -->
    <g transform="translate(561.172344 188.757162) scale(0.07 -0.07)">
     <use xlink:href="#DejaVuSans-52"/>
     <use xlink:href="#DejaVuSans-45" transform="translate(69.482422 0)"/>
     <use xlink:href="#DejaVuSans-53" transform="translate(132.666016 0)"/>
     <use xlink:href="#DejaVuSans-54" transform="translate(196.142578 0)"/>
     <use xlink:href="#DejaVuSans-20" transform="translate(257.226562 0)"/>
     <use xlink:href="#DejaVuSans-41" transform="translate(289.013672 0)"/>
     <use xlink:href="#DejaVuSans-50" transform="translate(357.421875 0)"/>
     <use xlink:href="#DejaVuSans-49" transform="translate(417.724609 0)"/>
    </g>
   </g>
   <g id="text_18">
    <g id="patch_30">
     <path d="M 352.494687 259.691444 
L 407.300312 259.691444 
L 407.300312 244.936756 
L 352.494687 244.936756 
z
" style="fill: #ffffff; opacity: 0.85"/>
    </g>
    <!-- fetch content -->
    <g transform="translate(356.484687 254.245662) scale(0.07 -0.07)">
     <use xlink:href="#DejaVuSans-66"/>
     <use xlink:href="#DejaVuSans-65" transform="translate(35.205078 0)"/>
     <use xlink:href="#DejaVuSans-74" transform="translate(96.728516 0)"/>
     <use xlink:href="#DejaVuSans-63" transform="translate(135.9375 0)"/>
     <use xlink:href="#DejaVuSans-68" transform="translate(190.917969 0)"/>
     <use xlink:href="#DejaVuSans-20" transform="translate(254.296875 0)"/>
     <use xlink:href="#DejaVuSans-63" transform="translate(286.083984 0)"/>
     <use xlink:href="#DejaVuSans-6f" transform="translate(341.064453 0)"/>
     <use xlink:href="#DejaVuSans-6e" transform="translate(402.246094 0)"/>
     <use xlink:href="#DejaVuSans-74" transform="translate(465.625 0)"/>
     <use xlink:href="#DejaVuSans-65" transform="translate(504.833984 0)"/>
     <use xlink:href="#DejaVuSans-6e" transform="translate(566.357422 0)"/>
     <use xlink:href="#DejaVuSans-74" transform="translate(629.736328 0)"/>
    </g>
   </g>
   <g id="text_19">
    <g id="patch_31">
     <path d="M 430.342891 315.824444 
L 492.202109 315.824444 
L 492.202109 301.069756 
L 430.342891 301.069756 
z
" style="fill: #ffffff; opacity: 0.85"/>
    </g>
    <!-- fetch transcript -->
    <g transform="translate(434.332891 310.378663) scale(0.07 -0.07)">
     <use xlink:href="#DejaVuSans-66"/>
     <use xlink:href="#DejaVuSans-65" transform="translate(35.205078 0)"/>
     <use xlink:href="#DejaVuSans-74" transform="translate(96.728516 0)"/>
     <use xlink:href="#DejaVuSans-63" transform="translate(135.9375 0)"/>
     <use xlink:href="#DejaVuSans-68" transform="translate(190.917969 0)"/>
     <use xlink:href="#DejaVuSans-20" transform="translate(254.296875 0)"/>
     <use xlink:href="#DejaVuSans-74" transform="translate(286.083984 0)"/>
     <use xlink:href="#DejaVuSans-72" transform="translate(325.292969 0)"/>
     <use xlink:href="#DejaVuSans-61" transform="translate(366.40625 0)"/>
     <use xlink:href="#DejaVuSans-6e" transform="translate(427.685547 0)"/>
     <use xlink:href="#DejaVuSans-73" transform="translate(491.064453 0)"/>
     <use xlink:href="#DejaVuSans-63" transform="translate(543.164062 0)"/>
     <use xlink:href="#DejaVuSans-72" transform="translate(598.144531 0)"/>
     <use xlink:href="#DejaVuSans-69" transform="translate(639.257812 0)"/>
     <use xlink:href="#DejaVuSans-70" transform="translate(667.041016 0)"/>
     <use xlink:href="#DejaVuSans-74" transform="translate(730.517578 0)"/>
    </g>
   </g>
   <g id="text_20">
    <g id="patch_32">
     <path d="M 451.465937 342.331694 
L 526.414062 342.331694 
L 526.414062 327.577006 
L 451.465937 327.577006 
z
" style="fill: #ffffff; opacity: 0.85"/>
    </g>
    <!-- generate summary -->
    <g transform="translate(455.455938 336.885913) scale(0.07 -0.07)">
     <use xlink:href="#DejaVuSans-67"/>
     <use xlink:href="#DejaVuSans-65" transform="translate(63.476562 0)"/>
     <use xlink:href="#DejaVuSans-6e" transform="translate(125 0)"/>
     <use xlink:href="#DejaVuSans-65" transform="translate(188.378906 0)"/>
     <use xlink:href="#DejaVuSans-72" transform="translate(249.902344 0)"/>
     <use xlink:href="#DejaVuSans-61" transform="translate(291.015625 0)"/>
     <use xlink:href="#DejaVuSans-74" transform="translate(352.294922 0)"/>
     <use xlink:href="#DejaVuSans-65" transform="translate(391.503906 0)"/>
     <use xlink:href="#DejaVuSans-20" transform="translate(453.027344 0)"/>
     <use xlink:href="#DejaVuSans-73" transform="translate(484.814453 0)"/>
     <use xlink:href="#DejaVuSans-75" transform="translate(536.914062 0)"/>
     <use xlink:href="#DejaVuSans-6d" transform="translate(600.292969 0)"/>
     <use xlink:href="#DejaVuSans-6d" transform="translate(697.705078 0)"/>
     <use xlink:href="#DejaVuSans-61" transform="translate(795.117188 0)"/>
     <use xlink:href="#DejaVuSans-72" transform="translate(856.396484 0)"/>
     <use xlink:href="#DejaVuSans-79" transform="translate(897.509766 0)"/>
    </g>
   </g>
   <g id="text_21">
    <g id="patch_33">
     <path d="M 449.364297 240.980444 
L 508.985703 240.980444 
L 508.985703 226.225756 
L 449.364297 226.225756 
z
" style="fill: #ffffff; opacity: 0.85"/>
    </g>
    <!-- save summary -->
    <g transform="translate(453.354297 235.534662) scale(0.07 -0.07)">
     <use xlink:href="#DejaVuSans-73"/>
     <use xlink:href="#DejaVuSans-61" transform="translate(52.099609 0)"/>
     <use xlink:href="#DejaVuSans-76" transform="translate(113.378906 0)"/>
     <use xlink:href="#DejaVuSans-65" transform="translate(172.558594 0)"/>
     <use xlink:href="#DejaVuSans-20" transform="translate(234.082031 0)"/>
     <use xlink:href="#DejaVuSans-73" transform="translate(265.869141 0)"/>
     <use xlink:href="#DejaVuSans-75" transform="translate(317.96875 0)"/>
     <use xlink:href="#DejaVuSans-6d" transform="translate(381.347656 0)"/>
     <use xlink:href="#DejaVuSans-6d" transform="translate(478.759766 0)"/>
     <use xlink:href="#DejaVuSans-61" transform="translate(576.171875 0)"/>
     <use xlink:href="#DejaVuSans-72" transform="translate(637.451172 0)"/>
     <use xlink:href="#DejaVuSans-79" transform="translate(678.564453 0)"/>
    </g>
   </g>
   <g id="text_22">
    <g id="patch_34">
     <path d="M 194.452187 201.999194 
L 230.077812 201.999194 
L 230.077812 187.244506 
L 194.452187 187.244506 
z
" style="fill: #ffffff; opacity: 0.85"/>
    </g>
    <!-- used by -->
    <g transform="translate(198.442187 196.553412) scale(0.07 -0.07)">
     <use xlink:href="#DejaVuSans-75"/>
     <use xlink:href="#DejaVuSans-73" transform="translate(63.378906 0)"/>
     <use xlink:href="#DejaVuSans-65" transform="translate(115.478516 0)"/>
     <use xlink:href="#DejaVuSans-64" transform="translate(177.001953 0)"/>
     <use xlink:href="#DejaVuSans-20" transform="translate(240.478516 0)"/>
     <use xlink:href="#DejaVuSans-62" transform="translate(272.265625 0)"/>
     <use xlink:href="#DejaVuSans-79" transform="translate(335.742188 0)"/>
    </g>
   </g>
   <g id="text_23">
    <g id="patch_35">
     <path d="M 113.077187 203.558444 
L 148.702812 203.558444 
L 148.702812 188.803756 
L 113.077187 188.803756 
z
" style="fill: #ffffff; opacity: 0.85"/>
    </g>
    <!-- used by -->
    <g transform="translate(117.067187 198.112662) scale(0.07 -0.07)">
     <use xlink:href="#DejaVuSans-75"/>
     <use xlink:href="#DejaVuSans-73" transform="translate(63.378906 0)"/>
     <use xlink:href="#DejaVuSans-65" transform="translate(115.478516 0)"/>
     <use xlink:href="#DejaVuSans-64" transform="translate(177.001953 0)"/>
     <use xlink:href="#DejaVuSans-20" transform="translate(240.478516 0)"/>
     <use xlink:href="#DejaVuSans-62" transform="translate(272.265625 0)"/>
     <use xlink:href="#DejaVuSans-79" transform="translate(335.742188 0)"/>
    </g>
   </g>
   <g id="text_24">
    <!-- C4 Level 3 — Component -->
    <g transform="translate(286.1825 33.4445) scale(0.16 -0.16)">
     <defs>
      <path id="DejaVuSans-Bold-34" d="M 2356 3675 
L 1038 1722 
L 2356 1722 
L 2356 3675 
z
M 2156 4666 
L 3494 4666 
L 3494 1722 
L 4159 1722 
L 4159 850 
L 3494 850 
L 3494 0 
L 2356 0 
L 2356 850 
L 288 850 
L 288 1881 
L 2156 4666 
z
" transform="scale(0.015625)"/>
      <path id="DejaVuSans-Bold-4c" d="M 588 4666 
L 1791 4666 
L 1791 909 
L 3903 909 
L 3903 0 
L 588 0 
L 588 4666 
z
" transform="scale(0.015625)"/>
      <path id="DejaVuSans-Bold-76" d="M 97 3500 
L 1216 3500 
L 2088 1081 
L 2956 3500 
L 4078 3500 
L 2700 0 
L 1472 0 
L 97 3500 
z
" transform="scale(0.015625)"/>
      <path id="DejaVuSans-Bold-6c" d="M 538 4863 
L 1656 4863 
L 1656 0 
L 538 0 
L 538 4863 
z
" transform="scale(0.015625)"/>
      <path id="DejaVuSans-Bold-33" d="M 2981 2516 
Q 3453 2394 3698 2092 
Q 3944 1791 3944 1325 
Q 3944 631 3412 270 
Q 2881 -91 1863 -91 
Q 1503 -91 1142 -33 
Q 781 25 428 141 
L 428 1069 
Q 766 900 1098 814 
Q 1431 728 1753 728 
Q 2231 728 2486 893 
Q 2741 1059 2741 1369 
Q 2741 1688 2480 1852 
Q 2219 2016 1709 2016 
L 1228 2016 
L 1228 2791 
L 1734 2791 
Q 2188 2791 2409 2933 
Q 2631 3075 2631 3366 
Q 2631 3634 2415 3781 
Q 2200 3928 1806 3928 
Q 1516 3928 1219 3862 
Q 922 3797 628 3669 
L 628 4550 
Q 984 4650 1334 4700 
Q 1684 4750 2022 4750 
Q 2931 4750 3382 4451 
Q 3834 4153 3834 3553 
Q 3834 3144 3618 2883 
Q 3403 2622 2981 2516 
z
" transform="scale(0.015625)"/>
      <path id="DejaVuSans-Bold-2014" d="M 344 2156 
L 6056 2156 
L 6056 1350 
L 344 1350 
L 344 2156 
z
" transform="scale(0.015625)"/>
      <path id="DejaVuSans-Bold-6d" d="M 3781 2919 
Q 3994 3244 4286 3414 
Q 4578 3584 4928 3584 
Q 5531 3584 5847 3212 
Q 6163 2841 6163 2131 
L 6163 0 
L 5038 0 
L 5038 1825 
Q 5041 1866 5042 1909 
Q 5044 1953 5044 2034 
Q 5044 2406 4934 2573 
Q 4825 2741 4581 2741 
Q 4263 2741 4089 2478 
Q 3916 2216 3909 1719 
L 3909 0 
L 2784 0 
L 2784 1825 
Q 2784 2406 2684 2573 
Q 2584 2741 2328 2741 
Q 2006 2741 1831 2477 
Q 1656 2213 1656 1722 
L 1656 0 
L 531 0 
L 531 3500 
L 1656 3500 
L 1656 2988 
Q 1863 3284 2130 3434 
Q 2397 3584 2719 3584 
Q 3081 3584 3359 3409 
Q 3638 3234 3781 2919 
z
" transform="scale(0.015625)"/>
      <path id="DejaVuSans-Bold-70" d="M 1656 506 
L 1656 -1331 
L 538 -1331 
L 538 3500 
L 1656 3500 
L 1656 2988 
Q 1888 3294 2169 3439 
Q 2450 3584 2816 3584 
Q 3463 3584 3878 3070 
Q 4294 2556 4294 1747 
Q 4294 938 3878 423 
Q 3463 -91 2816 -91 
Q 2450 -91 2169 54 
Q 1888 200 1656 506 
z
M 2400 2772 
Q 2041 2772 1848 2508 
Q 1656 2244 1656 1747 
Q 1656 1250 1848 986 
Q 2041 722 2400 722 
Q 2759 722 2948 984 
Q 3138 1247 3138 1747 
Q 3138 2247 2948 2509 
Q 2759 2772 2400 2772 
z
" transform="scale(0.015625)"/>
     </defs>
     <use xlink:href="#DejaVuSans-Bold-43"/>
     <use xlink:href="#DejaVuSans-Bold-34" transform="translate(73.388672 0)"/>
     <use xlink:href="#DejaVuSans-Bold-20" transform="translate(142.96875 0)"/>
     <use xlink:href="#DejaVuSans-Bold-4c" transform="translate(177.783203 0)"/>
     <use xlink:href="#DejaVuSans-Bold-65" transform="translate(241.503906 0)"/>
     <use xlink:href="#DejaVuSans-Bold-76" transform="translate(309.326172 0)"/>
     <use xlink:href="#DejaVuSans-Bold-65" transform="translate(374.511719 0)"/>
     <use xlink:href="#DejaVuSans-Bold-6c" transform="translate(442.333984 0)"/>
     <use xlink:href="#DejaVuSans-Bold-20" transform="translate(476.611328 0)"/>
     <use xlink:href="#DejaVuSans-Bold-33" transform="translate(511.425781 0)"/>
     <use xlink:href="#DejaVuSans-Bold-20" transform="translate(581.005859 0)"/>
     <use xlink:href="#DejaVuSans-Bold-2014" transform="translate(615.820312 0)"/>
     <use xlink:href="#DejaVuSans-Bold-20" transform="translate(715.820312 0)"/>
     <use xlink:href="#DejaVuSans-Bold-43" transform="translate(750.634766 0)"/>
     <use xlink:href="#DejaVuSans-Bold-6f" transform="translate(824.023438 0)"/>
     <use xlink:href="#DejaVuSans-Bold-6d" transform="translate(892.724609 0)"/>
     <use xlink:href="#DejaVuSans-Bold-70" transform="translate(996.923828 0)"/>
     <use xlink:href="#DejaVuSans-Bold-6f" transform="translate(1068.505859 0)"/>
     <use xlink:href="#DejaVuSans-Bold-6e" transform="translate(1137.207031 0)"/>
     <use xlink:href="#DejaVuSans-Bold-65" transform="translate(1208.398438 0)"/>
     <use xlink:href="#DejaVuSans-Bold-6e" transform="translate(1276.220703 0)"/>
     <use xlink:href="#DejaVuSans-Bold-74" transform="translate(1347.412109 0)"/>
    </g>
   </g>
  </g>
 </g>
 <defs>
  <clipPath id="p5d28868a55">
   <rect x="7.2" y="7.2" width="781.2" height="498.96"/>
  </clipPath>
 </defs>
</svg>
